<?xml version="1.0" encoding="UTF-8" standalone="no"?>
<svg
   xmlns:osb="http://www.openswatchbook.org/uri/2009/osb"
   xmlns:dc="http://purl.org/dc/elements/1.1/"
   xmlns:cc="http://creativecommons.org/ns#"
   xmlns:rdf="http://www.w3.org/1999/02/22-rdf-syntax-ns#"
   xmlns:svg="http://www.w3.org/2000/svg"
   xmlns="http://www.w3.org/2000/svg"
   xmlns:xlink="http://www.w3.org/1999/xlink"
   width="250"
   height="350"
   viewBox="0 0 66.145832 92.604169"
   version="1.1"
   id="svg8">
  <defs
     id="defs2">
    <linearGradient
       id="linearGradient3725">
      <stop
         style="stop-color:#bb0000;stop-opacity:1;"
         offset="0"
         id="stop3721" />
      <stop
         style="stop-color:#bb0000;stop-opacity:0;"
         offset="1"
         id="stop3723" />
    </linearGradient>
    <linearGradient
       id="linearGradient3713"
       osb:paint="solid">
      <stop
         style="stop-color:#bb0000;stop-opacity:1;"
         offset="0"
         id="stop3711" />
    </linearGradient>
    <linearGradient
       id="linearGradient1335">
      <stop
         style="stop-color:#0000ff;stop-opacity:1;"
         offset="0"
         id="stop1331" />
      <stop
         style="stop-color:#0000ff;stop-opacity:0;"
         offset="1"
         id="stop1333" />
    </linearGradient>
    <linearGradient
       id="linearGradient1327">
      <stop
         style="stop-color:#0000ff;stop-opacity:1;"
         offset="0"
         id="stop1323" />
      <stop
         style="stop-color:#0000ff;stop-opacity:0;"
         offset="1"
         id="stop1325" />
    </linearGradient>
    <radialGradient
       xlink:href="#linearGradient1335"
       id="radialGradient859"
       gradientUnits="userSpaceOnUse"
       gradientTransform="matrix(1,0,0,0.99166136,0,0.35280947)"
       cx="34.867516"
       cy="42.310204"
       fx="34.867516"
       fy="42.310204"
       r="61.728794" />
    <radialGradient
       xlink:href="#linearGradient1335"
       id="radialGradient867"
       gradientUnits="userSpaceOnUse"
       gradientTransform="matrix(1,0,0,0.99166136,0,0.35280947)"
       cx="34.867516"
       cy="42.310204"
       fx="34.867516"
       fy="42.310204"
       r="61.728794" />
    <radialGradient
       xlink:href="#linearGradient1327"
       id="radialGradient1329"
       cx="34.867517"
       cy="42.310202"
       fx="34.867517"
       fy="42.310202"
       r="61.728794"
       gradientTransform="matrix(1,0,0,0.99166136,0,0.35280947)"
       gradientUnits="userSpaceOnUse" />
    <radialGradient
       xlink:href="#linearGradient1335"
       id="radialGradient1337"
       cx="34.867517"
       cy="42.310202"
       fx="34.867517"
       fy="42.310202"
       r="61.728794"
       gradientTransform="matrix(1,0,0,0.99166136,0,0.35280947)"
       gradientUnits="userSpaceOnUse" />
    <radialGradient
       xlink:href="#linearGradient3725"
       id="radialGradient3727"
       cx="34.867517"
       cy="42.310202"
       fx="34.867517"
       fy="42.310202"
       r="61.728794"
       gradientTransform="matrix(1,0,0,0.99166136,0,0.35280947)"
       gradientUnits="userSpaceOnUse" />
  </defs>
  <metadata
     id="metadata5">
    <rdf:RDF>
      <cc:Work
         rdf:about="">
        <dc:format>image/svg+xml</dc:format>
        <dc:type
           rdf:resource="http://purl.org/dc/dcmitype/StillImage" />
        <dc:title></dc:title>
      </cc:Work>
    </rdf:RDF>
  </metadata>
  <g
     id="layer1">
    <rect
       style="fill:#acc700;fill-opacity:0.68421054;stroke:#0000ff;stroke-width:0.264583;stroke-opacity:1"
       id="rect1339"
       width="66.145836"
       height="92.604164"
       x="0"
       y="-1.0000006e-07" />
    <path
       style="fill:url(#radialGradient1329);fill-opacity:1;fill-rule:evenodd;stroke:#0000fd;stroke-width:0.264583;stroke-opacity:1"
       id="path20"
       d="m 38.134499,41.79557 c -1.90046,-0.513331 -0.245659,-2.81504 0.85319,-3.158688 2.977815,-0.931263 5.346225,2.207379 5.464186,4.86507 0.211003,4.753985 -4.463459,8.011381 -8.876948,7.769683 C 29.097953,50.916932 24.845696,44.530993 25.499746,38.382808 26.371492,30.188243 34.523815,24.914855 42.400452,26.00213 52.312396,27.370354 58.617603,37.312298 57.086627,46.914714 55.23241,58.544527 43.488914,65.887071 32.162164,63.906387 18.81398,61.572219 10.430839,48.02024 12.864994,34.970045 15.675322,19.903079 31.040171,10.477242 45.813215,13.367378 62.599285,16.651334 73.069254,33.832006 69.721379,50.327477 65.965569,68.832903 46.966992,80.348032 28.749401,76.541139 8.5244229,72.314766 -4.0366284,51.496757 0.23024184,31.557282 4.9262096,9.6125952 27.5648,-3.9949593 49.225977,0.73262555 72.890499,5.8974435 87.54501,30.357505 82.356131,53.74024 76.723048,79.124699 50.440813,94.826527 25.336639,89.175891 -1.7678419,83.075011 -18.51728,54.970039 -12.40451,28.14452 -5.8362134,-0.68005265 24.091956,-18.47734 52.63874,-11.902127 83.183463,-4.8667258 102.0288,26.88502 94.990884,57.153002 87.48864,89.417927 53.912999,109.31148 21.923876,101.81064 -12.061292,93.841776 -33.0032,58.441974 -25.039263,24.731757 -20.63544,6.091 -7.9830077,-9.9629204 8.9937463,-18.786475"
       transform="matrix(0.27365624,0,0,0.41926611,8.0850898,8.934867)" />
    <path
       style="fill:url(#radialGradient859);fill-opacity:1;fill-rule:evenodd;stroke:#0000f9;stroke-width:0.264583;stroke-opacity:1"
       id="path857"
       d="m 38.134499,41.79557 c -1.90046,-0.513331 -0.245659,-2.81504 0.85319,-3.158688 2.977815,-0.931263 5.346225,2.207379 5.464186,4.86507 0.211003,4.753985 -4.463459,8.011381 -8.876948,7.769683 C 29.097953,50.916932 24.845696,44.530993 25.499746,38.382808 26.371492,30.188243 34.523815,24.914855 42.400452,26.00213 52.312396,27.370354 58.617603,37.312298 57.086627,46.914714 55.23241,58.544527 43.488914,65.887071 32.162164,63.906387 18.81398,61.572219 10.430839,48.02024 12.864994,34.970045 15.675322,19.903079 31.040171,10.477242 45.813215,13.367378 62.599285,16.651334 73.069254,33.832006 69.721379,50.327477 65.965569,68.832903 46.966992,80.348032 28.749401,76.541139 8.5244229,72.314766 -4.0366284,51.496757 0.23024184,31.557282 4.9262096,9.6125952 27.5648,-3.9949593 49.225977,0.73262555 72.890499,5.8974435 87.54501,30.357505 82.356131,53.74024 76.723048,79.124699 50.440813,94.826527 25.336639,89.175891 -1.7678419,83.075011 -18.51728,54.970039 -12.40451,28.14452 -5.8362134,-0.68005265 24.091956,-18.47734 52.63874,-11.902127 83.183463,-4.8667258 102.0288,26.88502 94.990884,57.153002 87.48864,89.417927 53.912999,109.31148 21.923876,101.81064 -12.061292,93.841776 -33.0032,58.441974 -25.039263,24.731757 -20.63544,6.091 -7.9830077,-9.9629204 8.9937463,-18.786475"
       transform="matrix(0.27365624,0,0,0.41926611,39.83509,48.622367)" />
    <path
       style="fill:url(#radialGradient1337);fill-opacity:1;fill-rule:evenodd;stroke:#000000;stroke-width:0.264583"
       id="path861"
       d="m 38.134499,41.79557 c -1.90046,-0.513331 -0.245659,-2.81504 0.85319,-3.158688 2.977815,-0.931263 5.346225,2.207379 5.464186,4.86507 0.211003,4.753985 -4.463459,8.011381 -8.876948,7.769683 C 29.097953,50.916932 24.845696,44.530993 25.499746,38.382808 26.371492,30.188243 34.523815,24.914855 42.400452,26.00213 52.312396,27.370354 58.617603,37.312298 57.086627,46.914714 55.23241,58.544527 43.488914,65.887071 32.162164,63.906387 18.81398,61.572219 10.430839,48.02024 12.864994,34.970045 15.675322,19.903079 31.040171,10.477242 45.813215,13.367378 62.599285,16.651334 73.069254,33.832006 69.721379,50.327477 65.965569,68.832903 46.966992,80.348032 28.749401,76.541139 8.5244229,72.314766 -4.0366284,51.496757 0.23024184,31.557282 4.9262096,9.6125952 27.5648,-3.9949593 49.225977,0.73262555 72.890499,5.8974435 87.54501,30.357505 82.356131,53.74024 76.723048,79.124699 50.440813,94.826527 25.336639,89.175891 -1.7678419,83.075011 -18.51728,54.970039 -12.40451,28.14452 -5.8362134,-0.68005265 24.091956,-18.47734 52.63874,-11.902127 83.183463,-4.8667258 102.0288,26.88502 94.990884,57.153002 87.48864,89.417927 53.912999,109.31148 21.923876,101.81064 -12.061292,93.841776 -33.0032,58.441974 -25.039263,24.731757 -20.63544,6.091 -7.9830077,-9.9629204 8.9937463,-18.786475"
       transform="matrix(0.27365624,0,0,0.41926611,8.0850898,48.622367)" />
    <path
       style="fill:url(#radialGradient867);fill-opacity:1;fill-rule:evenodd;stroke:#0000ff;stroke-width:0.264583;stroke-opacity:1"
       id="path865"
       d="m 38.134499,41.79557 c -1.90046,-0.513331 -0.245659,-2.81504 0.85319,-3.158688 2.977815,-0.931263 5.346225,2.207379 5.464186,4.86507 0.211003,4.753985 -4.463459,8.011381 -8.876948,7.769683 C 29.097953,50.916932 24.845696,44.530993 25.499746,38.382808 26.371492,30.188243 34.523815,24.914855 42.400452,26.00213 52.312396,27.370354 58.617603,37.312298 57.086627,46.914714 55.23241,58.544527 43.488914,65.887071 32.162164,63.906387 18.81398,61.572219 10.430839,48.02024 12.864994,34.970045 15.675322,19.903079 31.040171,10.477242 45.813215,13.367378 62.599285,16.651334 73.069254,33.832006 69.721379,50.327477 65.965569,68.832903 46.966992,80.348032 28.749401,76.541139 8.5244229,72.314766 -4.0366284,51.496757 0.23024184,31.557282 4.9262096,9.6125952 27.5648,-3.9949593 49.225977,0.73262555 72.890499,5.8974435 87.54501,30.357505 82.356131,53.74024 76.723048,79.124699 50.440813,94.826527 25.336639,89.175891 -1.7678419,83.075011 -18.51728,54.970039 -12.40451,28.14452 -5.8362134,-0.68005265 24.091956,-18.47734 52.63874,-11.902127 83.183463,-4.8667258 102.0288,26.88502 94.990884,57.153002 87.48864,89.417927 53.912999,109.31148 21.923876,101.81064 -12.061292,93.841776 -33.0032,58.441974 -25.039263,24.731757 -20.63544,6.091 -7.9830077,-9.9629204 8.9937463,-18.786475"
       transform="matrix(0.27365624,0,0,0.41926611,39.305923,7.8765339)" />
    <path
       style="mix-blend-mode:normal;fill:url(#radialGradient3727);fill-opacity:1;fill-rule:evenodd;stroke:#fe0000;stroke-width:0.264583;stroke-opacity:1"
       id="path1311"
       d="m 38.134499,41.79557 c -1.90046,-0.513331 -0.245659,-2.81504 0.85319,-3.158688 2.977815,-0.931263 5.346225,2.207379 5.464186,4.86507 0.211003,4.753985 -4.463459,8.011381 -8.876948,7.769683 C 29.097953,50.916932 24.845696,44.530993 25.499746,38.382808 26.371492,30.188243 34.523815,24.914855 42.400452,26.00213 52.312396,27.370354 58.617603,37.312298 57.086627,46.914714 55.23241,58.544527 43.488914,65.887071 32.162164,63.906387 18.81398,61.572219 10.430839,48.02024 12.864994,34.970045 15.675322,19.903079 31.040171,10.477242 45.813215,13.367378 62.599285,16.651334 73.069254,33.832006 69.721379,50.327477 65.965569,68.832903 46.966992,80.348032 28.749401,76.541139 8.5244229,72.314766 -4.0366284,51.496757 0.23024184,31.557282 4.9262096,9.6125952 27.5648,-3.9949593 49.225977,0.73262555 72.890499,5.8974435 87.54501,30.357505 82.356131,53.74024 76.723048,79.124699 50.440813,94.826527 25.336639,89.175891 -1.7678419,83.075011 -18.51728,54.970039 -12.40451,28.14452 -5.8362134,-0.68005265 24.091956,-18.47734 52.63874,-11.902127 83.183463,-4.8667258 102.0288,26.88502 94.990884,57.153002 87.48864,89.417927 53.912999,109.31148 21.923876,101.81064 -12.061292,93.841776 -33.0032,58.441974 -25.039263,24.731757 -20.63544,6.091 -7.9830077,-9.9629204 8.9937463,-18.786475"
       transform="matrix(0.27365624,0,0,0.41926611,23.96009,30.101534)" />
  </g>
</svg>
