<?xml version="1.0" encoding="UTF-8" standalone="no"?>
<svg
   xmlns:dc="http://purl.org/dc/elements/1.1/"
   xmlns:cc="http://creativecommons.org/ns#"
   xmlns:rdf="http://www.w3.org/1999/02/22-rdf-syntax-ns#"
   xmlns:svg="http://www.w3.org/2000/svg"
   xmlns="http://www.w3.org/2000/svg"
   width="250"
   height="350"
   viewBox="0 0 66.145832 92.604169"
   version="1.1"
   id="svg3735">
  <defs
     id="defs3729" />
  <metadata
     id="metadata3732">
    <rdf:RDF>
      <cc:Work
         rdf:about="">
        <dc:format>image/svg+xml</dc:format>
        <dc:type
           rdf:resource="http://purl.org/dc/dcmitype/StillImage" />
        <dc:title></dc:title>
      </cc:Work>
    </rdf:RDF>
  </metadata>
  <g
     id="layer1">
    <path
       style="fill:#006400;fill-opacity:0.684211;stroke:#000000;stroke-width:0.24337703;stroke-opacity:1;stroke-miterlimit:4;stroke-dasharray:none;stroke-linejoin:bevel"
       id="path3755"
       d="m 9.2604171,15.875 -3.4370384,-1.984375 -1e-7,-3.9687499 3.4370383,-1.9843751 3.4370381,1.9843749 0,3.9687501 z"
       transform="matrix(0.93271325,0.54893236,-0.53900013,0.94990045,2.0330162,-12.621435)" />
    <path
       style="fill:#006400;fill-opacity:0.684211;stroke:#000000;stroke-width:0.243377;stroke-linejoin:bevel;stroke-miterlimit:4;stroke-dasharray:none;stroke-opacity:1"
       id="path4340"
       d="m 9.2604171,15.875 -3.4370384,-1.984375 -1e-7,-3.9687499 3.4370383,-1.9843751 3.4370381,1.9843749 0,3.9687501 z"
       transform="matrix(0.93271325,0.54893236,-0.53900013,0.94990045,2.0555062,-5.0142687)" />
    <path
       style="fill:#ffffff;fill-opacity:0.684211;stroke:#000000;stroke-width:0.243377;stroke-linejoin:bevel;stroke-miterlimit:4;stroke-dasharray:none;stroke-opacity:1"
       id="path4342"
       d="m 9.2604171,15.875 -3.4370384,-1.984375 -1e-7,-3.9687499 3.4370383,-1.9843751 3.4370381,1.9843749 0,3.9687501 z"
       transform="matrix(0.93271325,0.54893236,-0.53900013,0.94990045,2.0555062,2.3940649)" />
    <path
       style="fill:#ffffff;fill-opacity:0.684211;stroke:#000000;stroke-width:0.243377;stroke-linejoin:bevel;stroke-miterlimit:4;stroke-dasharray:none;stroke-opacity:1"
       id="path4344"
       d="m 9.2604171,15.875 -3.4370384,-1.984375 -1e-7,-3.9687499 3.4370383,-1.9843751 3.4370381,1.9843749 0,3.9687501 z"
       transform="matrix(0.93271325,0.54893236,-0.53900013,0.94990045,2.0555062,9.8023983)" />
    <path
       style="fill:#deb887;fill-opacity:0.684211;stroke:#000000;stroke-width:0.243377;stroke-linejoin:bevel;stroke-miterlimit:4;stroke-dasharray:none;stroke-opacity:1"
       id="path4346"
       d="m 9.2604171,15.875 -3.4370384,-1.984375 -1e-7,-3.9687499 3.4370383,-1.9843751 3.4370381,1.9843749 0,3.9687501 z"
       transform="matrix(0.93271325,0.54893236,-0.53900013,0.94990045,2.0555062,17.210736)" />
    <path
       style="fill:#deb887;fill-opacity:0.684211;stroke:#000000;stroke-width:0.243377;stroke-linejoin:bevel;stroke-miterlimit:4;stroke-dasharray:none;stroke-opacity:1"
       id="path4348"
       d="m 9.2604171,15.875 -3.4370384,-1.984375 -1e-7,-3.9687499 3.4370383,-1.9843751 3.4370381,1.9843749 0,3.9687501 z"
       transform="matrix(0.93271325,0.54893236,-0.53900013,0.94990045,2.0555062,24.619074)" />
    <path
       style="fill:#ffffff;fill-opacity:0.684211;stroke:#000000;stroke-width:0.243377;stroke-linejoin:bevel;stroke-miterlimit:4;stroke-dasharray:none;stroke-opacity:1"
       id="path4350"
       d="m 9.2604171,15.875 -3.4370384,-1.984375 -1e-7,-3.9687499 3.4370383,-1.9843751 3.4370381,1.9843749 0,3.9687501 z"
       transform="matrix(0.93271325,0.54893236,-0.53900013,0.94990045,2.0555062,32.027412)" />
    <path
       style="fill:#ff4500;fill-opacity:0.684211;stroke:#000000;stroke-width:0.243377;stroke-linejoin:bevel;stroke-miterlimit:4;stroke-dasharray:none;stroke-opacity:1"
       id="path4352"
       d="m 9.2604171,15.875 -3.4370384,-1.984375 -1e-7,-3.9687499 3.4370383,-1.9843751 3.4370381,1.9843749 0,3.9687501 z"
       transform="matrix(0.93271325,0.54893236,-0.53900013,0.94990045,2.0555062,39.43575)" />
    <path
       style="fill:#ff4500;fill-opacity:0.684211;stroke:#000000;stroke-width:0.243377;stroke-linejoin:bevel;stroke-miterlimit:4;stroke-dasharray:none;stroke-opacity:1"
       id="path4354"
       d="m 9.2604171,15.875 -3.4370384,-1.984375 -1e-7,-3.9687499 3.4370383,-1.9843751 3.4370381,1.9843749 0,3.9687501 z"
       transform="matrix(0.93271325,0.54893236,-0.53900013,0.94990045,2.0555062,46.844088)" />
    <path
       style="fill:#ffffff;fill-opacity:0.684211;stroke:#000000;stroke-width:0.243377;stroke-linejoin:bevel;stroke-miterlimit:4;stroke-dasharray:none;stroke-opacity:1"
       id="path4356"
       d="m 9.2604171,15.875 -3.4370384,-1.984375 -1e-7,-3.9687499 3.4370383,-1.9843751 3.4370381,1.9843749 0,3.9687501 z"
       transform="matrix(0.93271325,0.54893236,-0.53900013,0.94990045,2.0555062,54.252426)" />
    <path
       style="fill:#00ced1;fill-opacity:0.684211;stroke:#000000;stroke-width:0.243377;stroke-linejoin:bevel;stroke-miterlimit:4;stroke-dasharray:none;stroke-opacity:1"
       id="path4358"
       d="m 9.2604171,15.875 -3.4370384,-1.984375 -1e-7,-3.9687499 3.4370383,-1.9843751 3.4370381,1.9843749 0,3.9687501 z"
       transform="matrix(0.93271325,0.54893236,-0.53900013,0.94990045,2.0555062,61.660764)" />
    <path
       style="fill:#00ced1;fill-opacity:0.684211;stroke:#000000;stroke-width:0.243377;stroke-linejoin:bevel;stroke-miterlimit:4;stroke-dasharray:none;stroke-opacity:1"
       id="path4360"
       d="m 9.2604171,15.875 -3.4370384,-1.984375 -1e-7,-3.9687499 3.4370383,-1.9843751 3.4370381,1.9843749 0,3.9687501 z"
       transform="matrix(0.93271325,0.54893236,-0.53900013,0.94990045,2.0555062,69.069102)" />
    <path
       style="fill:#00ced1;fill-opacity:0.684211;stroke:#000000;stroke-width:0.243377;stroke-linejoin:bevel;stroke-miterlimit:4;stroke-dasharray:none;stroke-opacity:1"
       id="path4362"
       d="m 9.2604171,15.875 -3.4370384,-1.984375 -1e-7,-3.9687499 3.4370383,-1.9843751 3.4370381,1.9843749 0,3.9687501 z"
       transform="matrix(0.93271325,0.54893236,-0.53900013,0.94990045,8.4055062,72.773271)" />
    <path
       style="fill:#ffff00;fill-opacity:0.684211;stroke:#000000;stroke-width:0.243377;stroke-linejoin:bevel;stroke-miterlimit:4;stroke-dasharray:none;stroke-opacity:1"
       id="path4364"
       d="m 9.2604171,15.875 -3.4370384,-1.984375 -1e-7,-3.9687499 3.4370383,-1.9843751 3.4370381,1.9843749 0,3.9687501 z"
       transform="matrix(0.93271325,0.54893236,-0.53900013,0.94990045,8.4055062,65.364933)" />
    <path
       style="fill:#00ced1;fill-opacity:0.684211;stroke:#000000;stroke-width:0.243377;stroke-linejoin:bevel;stroke-miterlimit:4;stroke-dasharray:none;stroke-opacity:1"
       id="path4366"
       d="m 9.2604171,15.875 -3.4370384,-1.984375 -1e-7,-3.9687499 3.4370383,-1.9843751 3.4370381,1.9843749 0,3.9687501 z"
       transform="matrix(0.93271325,0.54893236,-0.53900013,0.94990045,8.4055062,57.956595)" />
    <path
       style="fill:#ffffff;fill-opacity:0.684211;stroke:#000000;stroke-width:0.243377;stroke-linejoin:bevel;stroke-miterlimit:4;stroke-dasharray:none;stroke-opacity:1"
       id="path4368"
       d="m 9.2604171,15.875 -3.4370384,-1.984375 -1e-7,-3.9687499 3.4370383,-1.9843751 3.4370381,1.9843749 0,3.9687501 z"
       transform="matrix(0.93271325,0.54893236,-0.53900013,0.94990045,8.4055062,50.548257)" />
    <path
       style="fill:#ffffff;fill-opacity:0.684211;stroke:#000000;stroke-width:0.243377;stroke-linejoin:bevel;stroke-miterlimit:4;stroke-dasharray:none;stroke-opacity:1"
       id="path4370"
       d="m 9.2604171,15.875 -3.4370384,-1.984375 -1e-7,-3.9687499 3.4370383,-1.9843751 3.4370381,1.9843749 0,3.9687501 z"
       transform="matrix(0.93271325,0.54893236,-0.53900013,0.94990045,8.4055062,43.139919)" />
    <path
       style="fill:#ffffff;fill-opacity:0.684211;stroke:#000000;stroke-width:0.243377;stroke-linejoin:bevel;stroke-miterlimit:4;stroke-dasharray:none;stroke-opacity:1"
       id="path4372"
       d="m 9.2604171,15.875 -3.4370384,-1.984375 -1e-7,-3.9687499 3.4370383,-1.9843751 3.4370381,1.9843749 0,3.9687501 z"
       transform="matrix(0.93271325,0.54893236,-0.53900013,0.94990045,8.4055062,35.731581)" />
    <path
       style="fill:#deb887;fill-opacity:0.684211;stroke:#000000;stroke-width:0.243377;stroke-linejoin:bevel;stroke-miterlimit:4;stroke-dasharray:none;stroke-opacity:1"
       id="path4374"
       d="m 9.2604171,15.875 -3.4370384,-1.984375 -1e-7,-3.9687499 3.4370383,-1.9843751 3.4370381,1.9843749 0,3.9687501 z"
       transform="matrix(0.93271325,0.54893236,-0.53900013,0.94990045,8.4055062,28.323243)" />
    <path
       style="fill:#ffff00;fill-opacity:0.684211;stroke:#000000;stroke-width:0.243377;stroke-linejoin:bevel;stroke-miterlimit:4;stroke-dasharray:none;stroke-opacity:1"
       id="path4376"
       d="m 9.2604171,15.875 -3.4370384,-1.984375 -1e-7,-3.9687499 3.4370383,-1.9843751 3.4370381,1.9843749 0,3.9687501 z"
       transform="matrix(0.93271325,0.54893236,-0.53900013,0.94990045,8.4055062,20.914905)" />
    <path
       style="fill:#deb887;fill-opacity:0.684211;stroke:#000000;stroke-width:0.243377;stroke-linejoin:bevel;stroke-miterlimit:4;stroke-dasharray:none;stroke-opacity:1"
       id="path4378"
       d="m 9.2604171,15.875 -3.4370384,-1.984375 -1e-7,-3.9687499 3.4370383,-1.9843751 3.4370381,1.9843749 0,3.9687501 z"
       transform="matrix(0.93271325,0.54893236,-0.53900013,0.94990045,8.4055062,13.506567)" />
    <path
       style="fill:#ffffff;fill-opacity:0.684211;stroke:#000000;stroke-width:0.243377;stroke-linejoin:bevel;stroke-miterlimit:4;stroke-dasharray:none;stroke-opacity:1"
       id="path4380"
       d="m 9.2604171,15.875 -3.4370384,-1.984375 -1e-7,-3.9687499 3.4370383,-1.9843751 3.4370381,1.9843749 0,3.9687501 z"
       transform="matrix(0.93271325,0.54893236,-0.53900013,0.94990045,8.4055062,6.0982314)" />
    <path
       style="fill:#ffffff;fill-opacity:0.684211;stroke:#000000;stroke-width:0.243377;stroke-linejoin:bevel;stroke-miterlimit:4;stroke-dasharray:none;stroke-opacity:1"
       id="path4382"
       d="m 9.2604171,15.875 -3.4370384,-1.984375 -1e-7,-3.9687499 3.4370383,-1.9843751 3.4370381,1.9843749 0,3.9687501 z"
       transform="matrix(0.93271325,0.54893236,-0.53900013,0.94990045,8.4055062,-1.3101022)" />
    <path
       style="fill:#ffffff;fill-opacity:0.684211;stroke:#000000;stroke-width:0.243377;stroke-linejoin:bevel;stroke-miterlimit:4;stroke-dasharray:none;stroke-opacity:1"
       id="path4384"
       d="m 9.2604171,15.875 -3.4370384,-1.984375 -1e-7,-3.9687499 3.4370383,-1.9843751 3.4370381,1.9843749 0,3.9687501 z"
       transform="matrix(0.93271325,0.54893236,-0.53900013,0.94990045,8.4055062,-8.718436)" />
    <path
       style="fill:#ffffff;fill-opacity:0.684211;stroke:#000000;stroke-width:0.243377;stroke-linejoin:bevel;stroke-miterlimit:4;stroke-dasharray:none;stroke-opacity:1"
       id="path4386"
       d="m 9.2604171,15.875 -3.4370384,-1.984375 -1e-7,-3.9687499 3.4370383,-1.9843751 3.4370381,1.9843749 0,3.9687501 z"
       transform="matrix(0.93271325,0.54893236,-0.53900013,0.94990045,14.755509,-12.422604)" />
    <path
       style="fill:#ffffff;fill-opacity:0.684211;stroke:#000000;stroke-width:0.243377;stroke-linejoin:bevel;stroke-miterlimit:4;stroke-dasharray:none;stroke-opacity:1"
       id="path4388"
       d="m 9.2604171,15.875 -3.4370384,-1.984375 -1e-7,-3.9687499 3.4370383,-1.9843751 3.4370381,1.9843749 0,3.9687501 z"
       transform="matrix(0.93271325,0.54893236,-0.53900013,0.94990045,14.755509,-5.014269)" />
    <path
       style="fill:#ffffff;fill-opacity:0.684211;stroke:#000000;stroke-width:0.243377;stroke-linejoin:bevel;stroke-miterlimit:4;stroke-dasharray:none;stroke-opacity:1"
       id="path4390"
       d="m 9.2604171,15.875 -3.4370384,-1.984375 -1e-7,-3.9687499 3.4370383,-1.9843751 3.4370381,1.9843749 0,3.9687501 z"
       transform="matrix(0.93271325,0.54893236,-0.53900013,0.94990045,14.755509,2.3940646)" />
    <path
       style="fill:#ffffff;fill-opacity:0.684211;stroke:#000000;stroke-width:0.243377;stroke-linejoin:bevel;stroke-miterlimit:4;stroke-dasharray:none;stroke-opacity:1"
       id="path4392"
       d="m 9.2604171,15.875 -3.4370384,-1.984375 -1e-7,-3.9687499 3.4370383,-1.9843751 3.4370381,1.9843749 0,3.9687501 z"
       transform="matrix(0.93271325,0.54893236,-0.53900013,0.94990045,14.755509,9.8023984)" />
    <path
       style="fill:#deb887;fill-opacity:0.684211;stroke:#000000;stroke-width:0.243377;stroke-linejoin:bevel;stroke-miterlimit:4;stroke-dasharray:none;stroke-opacity:1"
       id="path4394"
       d="m 9.2604171,15.875 -3.4370384,-1.984375 -1e-7,-3.9687499 3.4370383,-1.9843751 3.4370381,1.9843749 0,3.9687501 z"
       transform="matrix(0.93271325,0.54893236,-0.53900013,0.94990045,14.755509,17.210736)" />
    <path
       style="fill:#deb887;fill-opacity:0.684211;stroke:#000000;stroke-width:0.243377;stroke-linejoin:bevel;stroke-miterlimit:4;stroke-dasharray:none;stroke-opacity:1"
       id="path4396"
       d="m 9.2604171,15.875 -3.4370384,-1.984375 -1e-7,-3.9687499 3.4370383,-1.9843751 3.4370381,1.9843749 0,3.9687501 z"
       transform="matrix(0.93271325,0.54893236,-0.53900013,0.94990045,14.755509,24.619074)" />
    <path
       style="fill:#ffffff;fill-opacity:0.684211;stroke:#000000;stroke-width:0.243377;stroke-linejoin:bevel;stroke-miterlimit:4;stroke-dasharray:none;stroke-opacity:1"
       id="path4398"
       d="m 9.2604171,15.875 -3.4370384,-1.984375 -1e-7,-3.9687499 3.4370383,-1.9843751 3.4370381,1.9843749 0,3.9687501 z"
       transform="matrix(0.93271325,0.54893236,-0.53900013,0.94990045,14.755509,32.027412)" />
    <path
       style="fill:#ffffff;fill-opacity:0.684211;stroke:#000000;stroke-width:0.243377;stroke-linejoin:bevel;stroke-miterlimit:4;stroke-dasharray:none;stroke-opacity:1"
       id="path4400"
       d="m 9.2604171,15.875 -3.4370384,-1.984375 -1e-7,-3.9687499 3.4370383,-1.9843751 3.4370381,1.9843749 0,3.9687501 z"
       transform="matrix(0.93271325,0.54893236,-0.53900013,0.94990045,14.755509,39.43575)" />
    <path
       style="fill:#ffffff;fill-opacity:0.684211;stroke:#000000;stroke-width:0.243377;stroke-linejoin:bevel;stroke-miterlimit:4;stroke-dasharray:none;stroke-opacity:1"
       id="path4402"
       d="m 9.2604171,15.875 -3.4370384,-1.984375 -1e-7,-3.9687499 3.4370383,-1.9843751 3.4370381,1.9843749 0,3.9687501 z"
       transform="matrix(0.93271325,0.54893236,-0.53900013,0.94990045,14.755509,46.844088)" />
    <path
       style="fill:#ffffff;fill-opacity:0.684211;stroke:#000000;stroke-width:0.243377;stroke-linejoin:bevel;stroke-miterlimit:4;stroke-dasharray:none;stroke-opacity:1"
       id="path4404"
       d="m 9.2604171,15.875 -3.4370384,-1.984375 -1e-7,-3.9687499 3.4370383,-1.9843751 3.4370381,1.9843749 0,3.9687501 z"
       transform="matrix(0.93271325,0.54893236,-0.53900013,0.94990045,14.755509,54.252426)" />
    <path
       style="fill:#00ced1;fill-opacity:0.684211;stroke:#000000;stroke-width:0.243377;stroke-linejoin:bevel;stroke-miterlimit:4;stroke-dasharray:none;stroke-opacity:1"
       id="path4406"
       d="m 9.2604171,15.875 -3.4370384,-1.984375 -1e-7,-3.9687499 3.4370383,-1.9843751 3.4370381,1.9843749 0,3.9687501 z"
       transform="matrix(0.93271325,0.54893236,-0.53900013,0.94990045,14.755509,61.660764)" />
    <path
       style="fill:#00ced1;fill-opacity:0.684211;stroke:#000000;stroke-width:0.243377;stroke-linejoin:bevel;stroke-miterlimit:4;stroke-dasharray:none;stroke-opacity:1"
       id="path4408"
       d="m 9.2604171,15.875 -3.4370384,-1.984375 -1e-7,-3.9687499 3.4370383,-1.9843751 3.4370381,1.9843749 0,3.9687501 z"
       transform="matrix(0.93271325,0.54893236,-0.53900013,0.94990045,14.755509,69.069102)" />
    <path
       style="fill:#ffffff;fill-opacity:0.684211;stroke:#000000;stroke-width:0.243377;stroke-linejoin:bevel;stroke-miterlimit:4;stroke-dasharray:none;stroke-opacity:1"
       id="path4410"
       d="m 9.2604171,15.875 -3.4370384,-1.984375 -1e-7,-3.9687499 3.4370383,-1.9843751 3.4370381,1.9843749 0,3.9687501 z"
       transform="matrix(0.93271325,0.54893236,-0.53900013,0.94990045,21.105513,72.773271)" />
    <path
       style="fill:#ffffff;fill-opacity:0.684211;stroke:#000000;stroke-width:0.243377;stroke-linejoin:bevel;stroke-miterlimit:4;stroke-dasharray:none;stroke-opacity:1"
       id="path4412"
       d="m 9.2604171,15.875 -3.4370384,-1.984375 -1e-7,-3.9687499 3.4370383,-1.9843751 3.4370381,1.9843749 0,3.9687501 z"
       transform="matrix(0.93271325,0.54893236,-0.53900013,0.94990045,21.105513,65.364933)" />
    <path
       style="fill:#ffffff;fill-opacity:0.684211;stroke:#000000;stroke-width:0.243377;stroke-linejoin:bevel;stroke-miterlimit:4;stroke-dasharray:none;stroke-opacity:1"
       id="path4414"
       d="m 9.2604171,15.875 -3.4370384,-1.984375 -1e-7,-3.9687499 3.4370383,-1.9843751 3.4370381,1.9843749 0,3.9687501 z"
       transform="matrix(0.93271325,0.54893236,-0.53900013,0.94990045,21.105513,57.956595)" />
    <path
       style="fill:#ffffff;fill-opacity:0.684211;stroke:#000000;stroke-width:0.243377;stroke-linejoin:bevel;stroke-miterlimit:4;stroke-dasharray:none;stroke-opacity:1"
       id="path4416"
       d="m 9.2604171,15.875 -3.4370384,-1.984375 -1e-7,-3.9687499 3.4370383,-1.9843751 3.4370381,1.9843749 0,3.9687501 z"
       transform="matrix(0.93271325,0.54893236,-0.53900013,0.94990045,21.105513,50.548257)" />
    <path
       style="fill:#ff8c00;fill-opacity:0.684211;stroke:#000000;stroke-width:0.243377;stroke-linejoin:bevel;stroke-miterlimit:4;stroke-dasharray:none;stroke-opacity:1"
       id="path4418"
       d="m 9.2604171,15.875 -3.4370384,-1.984375 -1e-7,-3.9687499 3.4370383,-1.9843751 3.4370381,1.9843749 0,3.9687501 z"
       transform="matrix(0.93271325,0.54893236,-0.53900013,0.94990045,21.105513,43.139919)" />
    <path
       style="fill:#ff8c00;fill-opacity:0.684211;stroke:#000000;stroke-width:0.243377;stroke-linejoin:bevel;stroke-miterlimit:4;stroke-dasharray:none;stroke-opacity:1"
       id="path4420"
       d="m 9.2604171,15.875 -3.4370384,-1.984375 -1e-7,-3.9687499 3.4370383,-1.9843751 3.4370381,1.9843749 0,3.9687501 z"
       transform="matrix(0.93271325,0.54893236,-0.53900013,0.94990045,21.105513,35.731581)" />
    <path
       style="fill:#ffffff;fill-opacity:0.684211;stroke:#000000;stroke-width:0.243377;stroke-linejoin:bevel;stroke-miterlimit:4;stroke-dasharray:none;stroke-opacity:1"
       id="path4422"
       d="m 9.2604171,15.875 -3.4370384,-1.984375 -1e-7,-3.9687499 3.4370383,-1.9843751 3.4370381,1.9843749 0,3.9687501 z"
       transform="matrix(0.93271325,0.54893236,-0.53900013,0.94990045,21.105513,28.323243)" />
    <path
       style="fill:#ffffff;fill-opacity:0.684211;stroke:#000000;stroke-width:0.243377;stroke-linejoin:bevel;stroke-miterlimit:4;stroke-dasharray:none;stroke-opacity:1"
       id="path4424"
       d="m 9.2604171,15.875 -3.4370384,-1.984375 -1e-7,-3.9687499 3.4370383,-1.9843751 3.4370381,1.9843749 0,3.9687501 z"
       transform="matrix(0.93271325,0.54893236,-0.53900013,0.94990045,21.105513,20.914905)" />
    <path
       style="fill:#ffffff;fill-opacity:0.684211;stroke:#000000;stroke-width:0.243377;stroke-linejoin:bevel;stroke-miterlimit:4;stroke-dasharray:none;stroke-opacity:1"
       id="path4426"
       d="m 9.2604171,15.875 -3.4370384,-1.984375 -1e-7,-3.9687499 3.4370383,-1.9843751 3.4370381,1.9843749 0,3.9687501 z"
       transform="matrix(0.93271325,0.54893236,-0.53900013,0.94990045,21.105513,13.506567)" />
    <path
       style="fill:#00bfff;fill-opacity:0.684211;stroke:#000000;stroke-width:0.243377;stroke-linejoin:bevel;stroke-miterlimit:4;stroke-dasharray:none;stroke-opacity:1"
       id="path4428"
       d="m 9.2604171,15.875 -3.4370384,-1.984375 -1e-7,-3.9687499 3.4370383,-1.9843751 3.4370381,1.9843749 0,3.9687501 z"
       transform="matrix(0.93271325,0.54893236,-0.53900013,0.94990045,21.105513,6.0982314)" />
    <path
       style="fill:#00bfff;fill-opacity:0.684211;stroke:#000000;stroke-width:0.243377;stroke-linejoin:bevel;stroke-miterlimit:4;stroke-dasharray:none;stroke-opacity:1"
       id="path4430"
       d="m 9.2604171,15.875 -3.4370384,-1.984375 -1e-7,-3.9687499 3.4370383,-1.9843751 3.4370381,1.9843749 0,3.9687501 z"
       transform="matrix(0.93271325,0.54893236,-0.53900013,0.94990045,21.105513,-1.3101022)" />
    <path
       style="fill:#ffffff;fill-opacity:0.684211;stroke:#000000;stroke-width:0.243377;stroke-linejoin:bevel;stroke-miterlimit:4;stroke-dasharray:none;stroke-opacity:1"
       id="path4432"
       d="m 9.2604171,15.875 -3.4370384,-1.984375 -1e-7,-3.9687499 3.4370383,-1.9843751 3.4370381,1.9843749 0,3.9687501 z"
       transform="matrix(0.93271325,0.54893236,-0.53900013,0.94990045,21.105513,-8.718436)" />
    <path
       style="fill:#ffffff;fill-opacity:0.684211;stroke:#000000;stroke-width:0.243377;stroke-linejoin:bevel;stroke-miterlimit:4;stroke-dasharray:none;stroke-opacity:1"
       id="path4434"
       d="m 9.2604171,15.875 -3.4370384,-1.984375 -1e-7,-3.9687499 3.4370383,-1.9843751 3.4370381,1.9843749 0,3.9687501 z"
       transform="matrix(0.93271325,0.54893236,-0.53900013,0.94990045,27.455517,-12.422604)" />
    <path
       style="fill:#00bfff;fill-opacity:0.684211;stroke:#000000;stroke-width:0.243377;stroke-linejoin:bevel;stroke-miterlimit:4;stroke-dasharray:none;stroke-opacity:1"
       id="path4436"
       d="m 9.2604171,15.875 -3.4370384,-1.984375 -1e-7,-3.9687499 3.4370383,-1.9843751 3.4370381,1.9843749 0,3.9687501 z"
       transform="matrix(0.93271325,0.54893236,-0.53900013,0.94990045,27.455517,-5.014269)" />
    <path
       style="fill:#ffff00;fill-opacity:0.684211;stroke:#000000;stroke-width:0.243377;stroke-linejoin:bevel;stroke-miterlimit:4;stroke-dasharray:none;stroke-opacity:1"
       id="path4438"
       d="m 9.2604171,15.875 -3.4370384,-1.984375 -1e-7,-3.9687499 3.4370383,-1.9843751 3.4370381,1.9843749 0,3.9687501 z"
       transform="matrix(0.93271325,0.54893236,-0.53900013,0.94990045,27.455517,2.3940646)" />
    <path
       style="fill:#00bfff;fill-opacity:0.684211;stroke:#000000;stroke-width:0.243377;stroke-linejoin:bevel;stroke-miterlimit:4;stroke-dasharray:none;stroke-opacity:1"
       id="path4440"
       d="m 9.2604171,15.875 -3.4370384,-1.984375 -1e-7,-3.9687499 3.4370383,-1.9843751 3.4370381,1.9843749 0,3.9687501 z"
       transform="matrix(0.93271325,0.54893236,-0.53900013,0.94990045,27.455517,9.8023984)" />
    <path
       style="fill:#ffffff;fill-opacity:0.684211;stroke:#000000;stroke-width:0.243377;stroke-linejoin:bevel;stroke-miterlimit:4;stroke-dasharray:none;stroke-opacity:1"
       id="path4442"
       d="m 9.2604171,15.875 -3.4370384,-1.984375 -1e-7,-3.9687499 3.4370383,-1.9843751 3.4370381,1.9843749 0,3.9687501 z"
       transform="matrix(0.93271325,0.54893236,-0.53900013,0.94990045,27.455517,17.210736)" />
    <path
       style="fill:#ffffff;fill-opacity:0.684211;stroke:#000000;stroke-width:0.243377;stroke-linejoin:bevel;stroke-miterlimit:4;stroke-dasharray:none;stroke-opacity:1"
       id="path4444"
       d="m 9.2604171,15.875 -3.4370384,-1.984375 -1e-7,-3.9687499 3.4370383,-1.9843751 3.4370381,1.9843749 0,3.9687501 z"
       transform="matrix(0.93271325,0.54893236,-0.53900013,0.94990045,27.455517,24.619074)" />
    <path
       style="fill:#ff8c00;fill-opacity:0.684211;stroke:#000000;stroke-width:0.243377;stroke-linejoin:bevel;stroke-miterlimit:4;stroke-dasharray:none;stroke-opacity:1"
       id="path4446"
       d="m 9.2604171,15.875 -3.4370384,-1.984375 -1e-7,-3.9687499 3.4370383,-1.9843751 3.4370381,1.9843749 0,3.9687501 z"
       transform="matrix(0.93271325,0.54893236,-0.53900013,0.94990045,27.455517,32.027412)" />
    <path
       style="fill:#ffff00;fill-opacity:0.684211;stroke:#000000;stroke-width:0.243377;stroke-linejoin:bevel;stroke-miterlimit:4;stroke-dasharray:none;stroke-opacity:1"
       id="path4448"
       d="m 9.2604171,15.875 -3.4370384,-1.984375 -1e-7,-3.9687499 3.4370383,-1.9843751 3.4370381,1.9843749 0,3.9687501 z"
       transform="matrix(0.93271325,0.54893236,-0.53900013,0.94990045,27.455517,39.43575)" />
    <path
       style="fill:#ff8c00;fill-opacity:0.684211;stroke:#000000;stroke-width:0.243377;stroke-linejoin:bevel;stroke-miterlimit:4;stroke-dasharray:none;stroke-opacity:1"
       id="path4450"
       d="m 9.2604171,15.875 -3.4370384,-1.984375 -1e-7,-3.9687499 3.4370383,-1.9843751 3.4370381,1.9843749 0,3.9687501 z"
       transform="matrix(0.93271325,0.54893236,-0.53900013,0.94990045,27.455517,46.844088)" />
    <path
       style="fill:#ffffff;fill-opacity:0.684211;stroke:#000000;stroke-width:0.243377;stroke-linejoin:bevel;stroke-miterlimit:4;stroke-dasharray:none;stroke-opacity:1"
       id="path4452"
       d="m 9.2604171,15.875 -3.4370384,-1.984375 -1e-7,-3.9687499 3.4370383,-1.9843751 3.4370381,1.9843749 0,3.9687501 z"
       transform="matrix(0.93271325,0.54893236,-0.53900013,0.94990045,27.455517,54.252426)" />
    <path
       style="fill:#006400;fill-opacity:0.684211;stroke:#000000;stroke-width:0.243377;stroke-linejoin:bevel;stroke-miterlimit:4;stroke-dasharray:none;stroke-opacity:1"
       id="path4454"
       d="m 9.2604171,15.875 -3.4370384,-1.984375 -1e-7,-3.9687499 3.4370383,-1.9843751 3.4370381,1.9843749 0,3.9687501 z"
       transform="matrix(0.93271325,0.54893236,-0.53900013,0.94990045,27.455517,61.660764)" />
    <path
       style="fill:#006400;fill-opacity:0.684211;stroke:#000000;stroke-width:0.243377;stroke-linejoin:bevel;stroke-miterlimit:4;stroke-dasharray:none;stroke-opacity:1"
       id="path4456"
       d="m 9.2604171,15.875 -3.4370384,-1.984375 -1e-7,-3.9687499 3.4370383,-1.9843751 3.4370381,1.9843749 0,3.9687501 z"
       transform="matrix(0.93271325,0.54893236,-0.53900013,0.94990045,27.455517,69.069102)" />
    <path
       style="fill:#ffffff;fill-opacity:0.684211;stroke:#000000;stroke-width:0.243377;stroke-linejoin:bevel;stroke-miterlimit:4;stroke-dasharray:none;stroke-opacity:1"
       id="path4458"
       d="m 9.2604171,15.875 -3.4370384,-1.984375 -1e-7,-3.9687499 3.4370383,-1.9843751 3.4370381,1.9843749 0,3.9687501 z"
       transform="matrix(0.93271325,0.54893236,-0.53900013,0.94990045,33.805521,72.773271)" />
    <path
       style="fill:#ffffff;fill-opacity:0.684211;stroke:#000000;stroke-width:0.243377;stroke-linejoin:bevel;stroke-miterlimit:4;stroke-dasharray:none;stroke-opacity:1"
       id="path4460"
       d="m 9.2604171,15.875 -3.4370384,-1.984375 -1e-7,-3.9687499 3.4370383,-1.9843751 3.4370381,1.9843749 0,3.9687501 z"
       transform="matrix(0.93271325,0.54893236,-0.53900013,0.94990045,33.805521,65.364933)" />
    <path
       style="fill:#ffffff;fill-opacity:0.684211;stroke:#000000;stroke-width:0.243377;stroke-linejoin:bevel;stroke-miterlimit:4;stroke-dasharray:none;stroke-opacity:1"
       id="path4462"
       d="m 9.2604171,15.875 -3.4370384,-1.984375 -1e-7,-3.9687499 3.4370383,-1.9843751 3.4370381,1.9843749 0,3.9687501 z"
       transform="matrix(0.93271325,0.54893236,-0.53900013,0.94990045,33.805521,57.956595)" />
    <path
       style="fill:#ffffff;fill-opacity:0.684211;stroke:#000000;stroke-width:0.243377;stroke-linejoin:bevel;stroke-miterlimit:4;stroke-dasharray:none;stroke-opacity:1"
       id="path4464"
       d="m 9.2604171,15.875 -3.4370384,-1.984375 -1e-7,-3.9687499 3.4370383,-1.9843751 3.4370381,1.9843749 0,3.9687501 z"
       transform="matrix(0.93271325,0.54893236,-0.53900013,0.94990045,33.805521,50.548257)" />
    <path
       style="fill:#ff8c00;fill-opacity:0.684211;stroke:#000000;stroke-width:0.243377;stroke-linejoin:bevel;stroke-miterlimit:4;stroke-dasharray:none;stroke-opacity:1"
       id="path4466"
       d="m 9.2604171,15.875 -3.4370384,-1.984375 -1e-7,-3.9687499 3.4370383,-1.9843751 3.4370381,1.9843749 0,3.9687501 z"
       transform="matrix(0.93271325,0.54893236,-0.53900013,0.94990045,33.805521,43.139919)" />
    <path
       style="fill:#ff8c00;fill-opacity:0.684211;stroke:#000000;stroke-width:0.243377;stroke-linejoin:bevel;stroke-miterlimit:4;stroke-dasharray:none;stroke-opacity:1"
       id="path4468"
       d="m 9.2604171,15.875 -3.4370384,-1.984375 -1e-7,-3.9687499 3.4370383,-1.9843751 3.4370381,1.9843749 0,3.9687501 z"
       transform="matrix(0.93271325,0.54893236,-0.53900013,0.94990045,33.805521,35.731581)" />
    <path
       style="fill:#ffffff;fill-opacity:0.684211;stroke:#000000;stroke-width:0.243377;stroke-linejoin:bevel;stroke-miterlimit:4;stroke-dasharray:none;stroke-opacity:1"
       id="path4470"
       d="m 9.2604171,15.875 -3.4370384,-1.984375 -1e-7,-3.9687499 3.4370383,-1.9843751 3.4370381,1.9843749 0,3.9687501 z"
       transform="matrix(0.93271325,0.54893236,-0.53900013,0.94990045,33.805521,28.323243)" />
    <path
       style="fill:#ffffff;fill-opacity:0.684211;stroke:#000000;stroke-width:0.243377;stroke-linejoin:bevel;stroke-miterlimit:4;stroke-dasharray:none;stroke-opacity:1"
       id="path4472"
       d="m 9.2604171,15.875 -3.4370384,-1.984375 -1e-7,-3.9687499 3.4370383,-1.9843751 3.4370381,1.9843749 0,3.9687501 z"
       transform="matrix(0.93271325,0.54893236,-0.53900013,0.94990045,33.805521,20.914905)" />
    <path
       style="fill:#ffffff;fill-opacity:0.684211;stroke:#000000;stroke-width:0.243377;stroke-linejoin:bevel;stroke-miterlimit:4;stroke-dasharray:none;stroke-opacity:1"
       id="path4474"
       d="m 9.2604171,15.875 -3.4370384,-1.984375 -1e-7,-3.9687499 3.4370383,-1.9843751 3.4370381,1.9843749 0,3.9687501 z"
       transform="matrix(0.93271325,0.54893236,-0.53900013,0.94990045,33.805521,13.506567)" />
    <path
       style="fill:#00bfff;fill-opacity:0.684211;stroke:#000000;stroke-width:0.243377;stroke-linejoin:bevel;stroke-miterlimit:4;stroke-dasharray:none;stroke-opacity:1"
       id="path4476"
       d="m 9.2604171,15.875 -3.4370384,-1.984375 -1e-7,-3.9687499 3.4370383,-1.9843751 3.4370381,1.9843749 0,3.9687501 z"
       transform="matrix(0.93271325,0.54893236,-0.53900013,0.94990045,33.805521,6.0982314)" />
    <path
       style="fill:#00bfff;fill-opacity:0.684211;stroke:#000000;stroke-width:0.243377;stroke-linejoin:bevel;stroke-miterlimit:4;stroke-dasharray:none;stroke-opacity:1"
       id="path4478"
       d="m 9.2604171,15.875 -3.4370384,-1.984375 -1e-7,-3.9687499 3.4370383,-1.9843751 3.4370381,1.9843749 0,3.9687501 z"
       transform="matrix(0.93271325,0.54893236,-0.53900013,0.94990045,33.805521,-1.3101022)" />
    <path
       style="fill:#ffffff;fill-opacity:0.684211;stroke:#000000;stroke-width:0.243377;stroke-linejoin:bevel;stroke-miterlimit:4;stroke-dasharray:none;stroke-opacity:1"
       id="path4480"
       d="m 9.2604171,15.875 -3.4370384,-1.984375 -1e-7,-3.9687499 3.4370383,-1.9843751 3.4370381,1.9843749 0,3.9687501 z"
       transform="matrix(0.93271325,0.54893236,-0.53900013,0.94990045,33.805521,-8.718436)" />
    <path
       style="fill:#ffffff;fill-opacity:0.684211;stroke:#000000;stroke-width:0.243377;stroke-linejoin:bevel;stroke-miterlimit:4;stroke-dasharray:none;stroke-opacity:1"
       id="path4482"
       d="m 9.2604171,15.875 -3.4370384,-1.984375 -1e-7,-3.9687499 3.4370383,-1.9843751 3.4370381,1.9843749 0,3.9687501 z"
       transform="matrix(0.93271325,0.54893236,-0.53900013,0.94990045,40.155525,-12.422604)" />
    <path
       style="fill:#ffffff;fill-opacity:0.684211;stroke:#000000;stroke-width:0.243377;stroke-linejoin:bevel;stroke-miterlimit:4;stroke-dasharray:none;stroke-opacity:1"
       id="path4484"
       d="m 9.2604171,15.875 -3.4370384,-1.984375 -1e-7,-3.9687499 3.4370383,-1.9843751 3.4370381,1.9843749 0,3.9687501 z"
       transform="matrix(0.93271325,0.54893236,-0.53900013,0.94990045,40.155525,-5.014269)" />
    <path
       style="fill:#ffffff;fill-opacity:0.684211;stroke:#000000;stroke-width:0.243377;stroke-linejoin:bevel;stroke-miterlimit:4;stroke-dasharray:none;stroke-opacity:1"
       id="path4486"
       d="m 9.2604171,15.875 -3.4370384,-1.984375 -1e-7,-3.9687499 3.4370383,-1.9843751 3.4370381,1.9843749 0,3.9687501 z"
       transform="matrix(0.93271325,0.54893236,-0.53900013,0.94990045,40.155525,2.3940646)" />
    <path
       style="fill:#ffffff;fill-opacity:0.684211;stroke:#000000;stroke-width:0.243377;stroke-linejoin:bevel;stroke-miterlimit:4;stroke-dasharray:none;stroke-opacity:1"
       id="path4488"
       d="m 9.2604171,15.875 -3.4370384,-1.984375 -1e-7,-3.9687499 3.4370383,-1.9843751 3.4370381,1.9843749 0,3.9687501 z"
       transform="matrix(0.93271325,0.54893236,-0.53900013,0.94990045,40.155525,9.8023984)" />
    <path
       style="fill:#8fbc8f;fill-opacity:0.684211;stroke:#000000;stroke-width:0.243377;stroke-linejoin:bevel;stroke-miterlimit:4;stroke-dasharray:none;stroke-opacity:1"
       id="path4490"
       d="m 9.2604171,15.875 -3.4370384,-1.984375 -1e-7,-3.9687499 3.4370383,-1.9843751 3.4370381,1.9843749 0,3.9687501 z"
       transform="matrix(0.93271325,0.54893236,-0.53900013,0.94990045,40.155525,17.210736)" />
    <path
       style="fill:#8fbc8f;fill-opacity:0.684211;stroke:#000000;stroke-width:0.243377;stroke-linejoin:bevel;stroke-miterlimit:4;stroke-dasharray:none;stroke-opacity:1"
       id="path4492"
       d="m 9.2604171,15.875 -3.4370384,-1.984375 -1e-7,-3.9687499 3.4370383,-1.9843751 3.4370381,1.9843749 0,3.9687501 z"
       transform="matrix(0.93271325,0.54893236,-0.53900013,0.94990045,40.155525,24.619074)" />
    <path
       style="fill:#ffffff;fill-opacity:0.684211;stroke:#000000;stroke-width:0.243377;stroke-linejoin:bevel;stroke-miterlimit:4;stroke-dasharray:none;stroke-opacity:1"
       id="path4494"
       d="m 9.2604171,15.875 -3.4370384,-1.984375 -1e-7,-3.9687499 3.4370383,-1.9843751 3.4370381,1.9843749 0,3.9687501 z"
       transform="matrix(0.93271325,0.54893236,-0.53900013,0.94990045,40.155525,32.027412)" />
    <path
       style="fill:#ffffff;fill-opacity:0.684211;stroke:#000000;stroke-width:0.243377;stroke-linejoin:bevel;stroke-miterlimit:4;stroke-dasharray:none;stroke-opacity:1"
       id="path4496"
       d="m 9.2604171,15.875 -3.4370384,-1.984375 -1e-7,-3.9687499 3.4370383,-1.9843751 3.4370381,1.9843749 0,3.9687501 z"
       transform="matrix(0.93271325,0.54893236,-0.53900013,0.94990045,40.155525,39.43575)" />
    <path
       style="fill:#ffffff;fill-opacity:0.684211;stroke:#000000;stroke-width:0.243377;stroke-linejoin:bevel;stroke-miterlimit:4;stroke-dasharray:none;stroke-opacity:1"
       id="path4498"
       d="m 9.2604171,15.875 -3.4370384,-1.984375 -1e-7,-3.9687499 3.4370383,-1.9843751 3.4370381,1.9843749 0,3.9687501 z"
       transform="matrix(0.93271325,0.54893236,-0.53900013,0.94990045,40.155525,46.844088)" />
    <path
       style="fill:#ff0000;fill-opacity:0.684211;stroke:#000000;stroke-width:0.243377;stroke-linejoin:bevel;stroke-miterlimit:4;stroke-dasharray:none;stroke-opacity:1"
       id="path4500"
       d="m 9.2604171,15.875 -3.4370384,-1.984375 -1e-7,-3.9687499 3.4370383,-1.9843751 3.4370381,1.9843749 0,3.9687501 z"
       transform="matrix(0.93271325,0.54893236,-0.53900013,0.94990045,40.155525,54.252426)" />
    <path
       style="fill:#ff0000;fill-opacity:0.684211;stroke:#000000;stroke-width:0.243377;stroke-linejoin:bevel;stroke-miterlimit:4;stroke-dasharray:none;stroke-opacity:1"
       id="path4502"
       d="m 9.2604171,15.875 -3.4370384,-1.984375 -1e-7,-3.9687499 3.4370383,-1.9843751 3.4370381,1.9843749 0,3.9687501 z"
       transform="matrix(0.93271325,0.54893236,-0.53900013,0.94990045,40.155525,61.660764)" />
    <path
       style="fill:#ffffff;fill-opacity:0.684211;stroke:#000000;stroke-width:0.243377;stroke-linejoin:bevel;stroke-miterlimit:4;stroke-dasharray:none;stroke-opacity:1"
       id="path4504"
       d="m 9.2604171,15.875 -3.4370384,-1.984375 -1e-7,-3.9687499 3.4370383,-1.9843751 3.4370381,1.9843749 0,3.9687501 z"
       transform="matrix(0.93271325,0.54893236,-0.53900013,0.94990045,40.155525,69.069102)" />
    <path
       style="fill:#ffffff;fill-opacity:0.684211;stroke:#000000;stroke-width:0.243377;stroke-linejoin:bevel;stroke-miterlimit:4;stroke-dasharray:none;stroke-opacity:1"
       id="path4506"
       d="m 9.2604171,15.875 -3.4370384,-1.984375 -1e-7,-3.9687499 3.4370383,-1.9843751 3.4370381,1.9843749 0,3.9687501 z"
       transform="matrix(0.93271325,0.54893236,-0.53900013,0.94990045,46.505529,72.773271)" />
    <path
       style="fill:#ff0000;fill-opacity:0.684211;stroke:#000000;stroke-width:0.243377;stroke-linejoin:bevel;stroke-miterlimit:4;stroke-dasharray:none;stroke-opacity:1"
       id="path4508"
       d="m 9.2604171,15.875 -3.4370384,-1.984375 -1e-7,-3.9687499 3.4370383,-1.9843751 3.4370381,1.9843749 0,3.9687501 z"
       transform="matrix(0.93271325,0.54893236,-0.53900013,0.94990045,46.505529,65.364933)" />
    <path
       style="fill:#ffff00;fill-opacity:0.684211;stroke:#000000;stroke-width:0.243377;stroke-linejoin:bevel;stroke-miterlimit:4;stroke-dasharray:none;stroke-opacity:1"
       id="path4510"
       d="m 9.2604171,15.875 -3.4370384,-1.984375 -1e-7,-3.9687499 3.4370383,-1.9843751 3.4370381,1.9843749 0,3.9687501 z"
       transform="matrix(0.93271325,0.54893236,-0.53900013,0.94990045,46.505529,57.956595)" />
    <path
       style="fill:#ff0000;fill-opacity:0.684211;stroke:#000000;stroke-width:0.243377;stroke-linejoin:bevel;stroke-miterlimit:4;stroke-dasharray:none;stroke-opacity:1"
       id="path4512"
       d="m 9.2604171,15.875 -3.4370384,-1.984375 -1e-7,-3.9687499 3.4370383,-1.9843751 3.4370381,1.9843749 0,3.9687501 z"
       transform="matrix(0.93271325,0.54893236,-0.53900013,0.94990045,46.505529,50.548257)" />
    <path
       style="fill:#ffffff;fill-opacity:0.684211;stroke:#000000;stroke-width:0.243377;stroke-linejoin:bevel;stroke-miterlimit:4;stroke-dasharray:none;stroke-opacity:1"
       id="path4514"
       d="m 9.2604171,15.875 -3.4370384,-1.984375 -1e-7,-3.9687499 3.4370383,-1.9843751 3.4370381,1.9843749 0,3.9687501 z"
       transform="matrix(0.93271325,0.54893236,-0.53900013,0.94990045,46.505529,43.139919)" />
    <path
       style="fill:#ffffff;fill-opacity:0.684211;stroke:#000000;stroke-width:0.243377;stroke-linejoin:bevel;stroke-miterlimit:4;stroke-dasharray:none;stroke-opacity:1"
       id="path4516"
       d="m 9.2604171,15.875 -3.4370384,-1.984375 -1e-7,-3.9687499 3.4370383,-1.9843751 3.4370381,1.9843749 0,3.9687501 z"
       transform="matrix(0.93271325,0.54893236,-0.53900013,0.94990045,46.505529,35.731581)" />
    <path
       style="fill:#8fbc8f;fill-opacity:0.684211;stroke:#000000;stroke-width:0.243377;stroke-linejoin:bevel;stroke-miterlimit:4;stroke-dasharray:none;stroke-opacity:1"
       id="path4518"
       d="m 9.2604171,15.875 -3.4370384,-1.984375 -1e-7,-3.9687499 3.4370383,-1.9843751 3.4370381,1.9843749 0,3.9687501 z"
       transform="matrix(0.93271325,0.54893236,-0.53900013,0.94990045,46.505529,28.323243)" />
    <path
       style="fill:#ffff00;fill-opacity:0.684211;stroke:#000000;stroke-width:0.243377;stroke-linejoin:bevel;stroke-miterlimit:4;stroke-dasharray:none;stroke-opacity:1"
       id="path4520"
       d="m 9.2604171,15.875 -3.4370384,-1.984375 -1e-7,-3.9687499 3.4370383,-1.9843751 3.4370381,1.9843749 0,3.9687501 z"
       transform="matrix(0.93271325,0.54893236,-0.53900013,0.94990045,46.505529,20.914905)" />
    <path
       style="fill:#8fbc8f;fill-opacity:0.684211;stroke:#000000;stroke-width:0.243377;stroke-linejoin:bevel;stroke-miterlimit:4;stroke-dasharray:none;stroke-opacity:1"
       id="path4522"
       d="m 9.2604171,15.875 -3.4370384,-1.984375 -1e-7,-3.9687499 3.4370383,-1.9843751 3.4370381,1.9843749 0,3.9687501 z"
       transform="matrix(0.93271325,0.54893236,-0.53900013,0.94990045,46.505529,13.506567)" />
    <path
       style="fill:#ffffff;fill-opacity:0.684211;stroke:#000000;stroke-width:0.243377;stroke-linejoin:bevel;stroke-miterlimit:4;stroke-dasharray:none;stroke-opacity:1"
       id="path4524"
       d="m 9.2604171,15.875 -3.4370384,-1.984375 -1e-7,-3.9687499 3.4370383,-1.9843751 3.4370381,1.9843749 0,3.9687501 z"
       transform="matrix(0.93271325,0.54893236,-0.53900013,0.94990045,46.505529,6.0982314)" />
    <path
       style="fill:#cd5c5c;fill-opacity:0.684211;stroke:#000000;stroke-width:0.243377;stroke-linejoin:bevel;stroke-miterlimit:4;stroke-dasharray:none;stroke-opacity:1"
       id="path4526"
       d="m 9.2604171,15.875 -3.4370384,-1.984375 -1e-7,-3.9687499 3.4370383,-1.9843751 3.4370381,1.9843749 0,3.9687501 z"
       transform="matrix(0.93271325,0.54893236,-0.53900013,0.94990045,46.505529,-1.3101022)" />
    <path
       style="fill:#cd5c5c;fill-opacity:0.684211;stroke:#000000;stroke-width:0.243377;stroke-linejoin:bevel;stroke-miterlimit:4;stroke-dasharray:none;stroke-opacity:1"
       id="path4528"
       d="m 9.2604171,15.875 -3.4370384,-1.984375 -1e-7,-3.9687499 3.4370383,-1.9843751 3.4370381,1.9843749 0,3.9687501 z"
       transform="matrix(0.93271325,0.54893236,-0.53900013,0.94990045,46.505529,-8.718436)" />
    <path
       style="fill:#cd5c5c;fill-opacity:0.684211;stroke:#000000;stroke-width:0.243377;stroke-linejoin:bevel;stroke-miterlimit:4;stroke-dasharray:none;stroke-opacity:1"
       id="path4530"
       d="m 9.2604171,15.875 -3.4370384,-1.984375 -1e-7,-3.9687499 3.4370383,-1.9843751 3.4370381,1.9843749 0,3.9687501 z"
       transform="matrix(0.93271325,0.54893236,-0.53900013,0.94990045,52.855533,-12.422604)" />
    <path
       style="fill:#ffff00;fill-opacity:0.684211;stroke:#000000;stroke-width:0.243377;stroke-linejoin:bevel;stroke-miterlimit:4;stroke-dasharray:none;stroke-opacity:1"
       id="path4532"
       d="m 9.2604171,15.875 -3.4370384,-1.984375 -1e-7,-3.9687499 3.4370383,-1.9843751 3.4370381,1.9843749 0,3.9687501 z"
       transform="matrix(0.93271325,0.54893236,-0.53900013,0.94990045,52.855533,-5.014269)" />
    <path
       style="fill:#cd5c5c;fill-opacity:0.684211;stroke:#000000;stroke-width:0.243377;stroke-linejoin:bevel;stroke-miterlimit:4;stroke-dasharray:none;stroke-opacity:1"
       id="path4534"
       d="m 9.2604171,15.875 -3.4370384,-1.984375 -1e-7,-3.9687499 3.4370383,-1.9843751 3.4370381,1.9843749 0,3.9687501 z"
       transform="matrix(0.93271325,0.54893236,-0.53900013,0.94990045,52.855533,2.3940646)" />
    <path
       style="fill:#ffffff;fill-opacity:0.684211;stroke:#000000;stroke-width:0.243377;stroke-linejoin:bevel;stroke-miterlimit:4;stroke-dasharray:none;stroke-opacity:1"
       id="path4536"
       d="m 9.2604171,15.875 -3.4370384,-1.984375 -1e-7,-3.9687499 3.4370383,-1.9843751 3.4370381,1.9843749 0,3.9687501 z"
       transform="matrix(0.93271325,0.54893236,-0.53900013,0.94990045,52.855533,9.8023984)" />
    <path
       style="fill:#8fbc8f;fill-opacity:0.684211;stroke:#000000;stroke-width:0.243377;stroke-linejoin:bevel;stroke-miterlimit:4;stroke-dasharray:none;stroke-opacity:1"
       id="path4538"
       d="m 9.2604171,15.875 -3.4370384,-1.984375 -1e-7,-3.9687499 3.4370383,-1.9843751 3.4370381,1.9843749 0,3.9687501 z"
       transform="matrix(0.93271325,0.54893236,-0.53900013,0.94990045,52.855533,17.210736)" />
    <path
       style="fill:#8fbc8f;fill-opacity:0.684211;stroke:#000000;stroke-width:0.243377;stroke-linejoin:bevel;stroke-miterlimit:4;stroke-dasharray:none;stroke-opacity:1"
       id="path4540"
       d="m 9.2604171,15.875 -3.4370384,-1.984375 -1e-7,-3.9687499 3.4370383,-1.9843751 3.4370381,1.9843749 0,3.9687501 z"
       transform="matrix(0.93271325,0.54893236,-0.53900013,0.94990045,52.855533,24.619074)" />
    <path
       style="fill:#ffffff;fill-opacity:0.684211;stroke:#000000;stroke-width:0.243377;stroke-linejoin:bevel;stroke-miterlimit:4;stroke-dasharray:none;stroke-opacity:1"
       id="path4542"
       d="m 9.2604171,15.875 -3.4370384,-1.984375 -1e-7,-3.9687499 3.4370383,-1.9843751 3.4370381,1.9843749 0,3.9687501 z"
       transform="matrix(0.93271325,0.54893236,-0.53900013,0.94990045,52.855533,32.027412)" />
    <path
       style="fill:#ffffff;fill-opacity:0.684211;stroke:#000000;stroke-width:0.243377;stroke-linejoin:bevel;stroke-miterlimit:4;stroke-dasharray:none;stroke-opacity:1"
       id="path4544"
       d="m 9.2604171,15.875 -3.4370384,-1.984375 -1e-7,-3.9687499 3.4370383,-1.9843751 3.4370381,1.9843749 0,3.9687501 z"
       transform="matrix(0.93271325,0.54893236,-0.53900013,0.94990045,52.855533,39.43575)" />
    <path
       style="fill:#ffffff;fill-opacity:0.684211;stroke:#000000;stroke-width:0.243377;stroke-linejoin:bevel;stroke-miterlimit:4;stroke-dasharray:none;stroke-opacity:1"
       id="path4546"
       d="m 9.2604171,15.875 -3.4370384,-1.984375 -1e-7,-3.9687499 3.4370383,-1.9843751 3.4370381,1.9843749 0,3.9687501 z"
       transform="matrix(0.93271325,0.54893236,-0.53900013,0.94990045,52.855533,46.844088)" />
    <path
       style="fill:#ff0000;fill-opacity:0.684211;stroke:#000000;stroke-width:0.243377;stroke-linejoin:bevel;stroke-miterlimit:4;stroke-dasharray:none;stroke-opacity:1"
       id="path4548"
       d="m 9.2604171,15.875 -3.4370384,-1.984375 -1e-7,-3.9687499 3.4370383,-1.9843751 3.4370381,1.9843749 0,3.9687501 z"
       transform="matrix(0.93271325,0.54893236,-0.53900013,0.94990045,52.855533,54.252426)" />
    <path
       style="fill:#ff0000;fill-opacity:0.684211;stroke:#000000;stroke-width:0.243377;stroke-linejoin:bevel;stroke-miterlimit:4;stroke-dasharray:none;stroke-opacity:1"
       id="path4550"
       d="m 9.2604171,15.875 -3.4370384,-1.984375 -1e-7,-3.9687499 3.4370383,-1.9843751 3.4370381,1.9843749 0,3.9687501 z"
       transform="matrix(0.93271325,0.54893236,-0.53900013,0.94990045,52.855533,61.660764)" />
    <path
       style="fill:#ffffff;fill-opacity:0.684211;stroke:#000000;stroke-width:0.243377;stroke-linejoin:bevel;stroke-miterlimit:4;stroke-dasharray:none;stroke-opacity:1"
       id="path4552"
       d="m 9.2604171,15.875 -3.4370384,-1.984375 -1e-7,-3.9687499 3.4370383,-1.9843751 3.4370381,1.9843749 0,3.9687501 z"
       transform="matrix(0.93271325,0.54893236,-0.53900013,0.94990045,52.855533,69.069102)" />
    <path
       style="fill:#ffffff;fill-opacity:0.684211;stroke:#000000;stroke-width:0.243377;stroke-linejoin:bevel;stroke-miterlimit:4;stroke-dasharray:none;stroke-opacity:1"
       id="path4554"
       d="m 9.2604171,15.875 -3.4370384,-1.984375 -1e-7,-3.9687499 3.4370383,-1.9843751 3.4370381,1.9843749 0,3.9687501 z"
       transform="matrix(0.93271325,0.54893236,-0.53900013,0.94990045,59.205537,72.773271)" />
    <path
       style="fill:#ffffff;fill-opacity:0.684211;stroke:#000000;stroke-width:0.243377;stroke-linejoin:bevel;stroke-miterlimit:4;stroke-dasharray:none;stroke-opacity:1"
       id="path4556"
       d="m 9.2604171,15.875 -3.4370384,-1.984375 -1e-7,-3.9687499 3.4370383,-1.9843751 3.4370381,1.9843749 0,3.9687501 z"
       transform="matrix(0.93271325,0.54893236,-0.53900013,0.94990045,59.205537,65.364933)" />
    <path
       style="fill:#ffffff;fill-opacity:0.684211;stroke:#000000;stroke-width:0.243377;stroke-linejoin:bevel;stroke-miterlimit:4;stroke-dasharray:none;stroke-opacity:1"
       id="path4558"
       d="m 9.2604171,15.875 -3.4370384,-1.984375 -1e-7,-3.9687499 3.4370383,-1.9843751 3.4370381,1.9843749 0,3.9687501 z"
       transform="matrix(0.93271325,0.54893236,-0.53900013,0.94990045,59.205537,57.956595)" />
    <path
       style="fill:#ffffff;fill-opacity:0.684211;stroke:#000000;stroke-width:0.243377;stroke-linejoin:bevel;stroke-miterlimit:4;stroke-dasharray:none;stroke-opacity:1"
       id="path4560"
       d="m 9.2604171,15.875 -3.4370384,-1.984375 -1e-7,-3.9687499 3.4370383,-1.9843751 3.4370381,1.9843749 0,3.9687501 z"
       transform="matrix(0.93271325,0.54893236,-0.53900013,0.94990045,59.205537,50.548257)" />
    <path
       style="fill:#8b4513;fill-opacity:0.684211;stroke:#000000;stroke-width:0.243377;stroke-linejoin:bevel;stroke-miterlimit:4;stroke-dasharray:none;stroke-opacity:1"
       id="path4562"
       d="m 9.2604171,15.875 -3.4370384,-1.984375 -1e-7,-3.9687499 3.4370383,-1.9843751 3.4370381,1.9843749 0,3.9687501 z"
       transform="matrix(0.93271325,0.54893236,-0.53900013,0.94990045,59.205537,43.139919)" />
    <path
       style="fill:#8b4513;fill-opacity:0.684211;stroke:#000000;stroke-width:0.243377;stroke-linejoin:bevel;stroke-miterlimit:4;stroke-dasharray:none;stroke-opacity:1"
       id="path4564"
       d="m 9.2604171,15.875 -3.4370384,-1.984375 -1e-7,-3.9687499 3.4370383,-1.9843751 3.4370381,1.9843749 0,3.9687501 z"
       transform="matrix(0.93271325,0.54893236,-0.53900013,0.94990045,59.205537,35.731581)" />
    <path
       style="fill:#ffffff;fill-opacity:0.684211;stroke:#000000;stroke-width:0.243377;stroke-linejoin:bevel;stroke-miterlimit:4;stroke-dasharray:none;stroke-opacity:1"
       id="path4566"
       d="m 9.2604171,15.875 -3.4370384,-1.984375 -1e-7,-3.9687499 3.4370383,-1.9843751 3.4370381,1.9843749 0,3.9687501 z"
       transform="matrix(0.93271325,0.54893236,-0.53900013,0.94990045,59.205537,28.323243)" />
    <path
       style="fill:#ffffff;fill-opacity:0.684211;stroke:#000000;stroke-width:0.243377;stroke-linejoin:bevel;stroke-miterlimit:4;stroke-dasharray:none;stroke-opacity:1"
       id="path4568"
       d="m 9.2604171,15.875 -3.4370384,-1.984375 -1e-7,-3.9687499 3.4370383,-1.9843751 3.4370381,1.9843749 0,3.9687501 z"
       transform="matrix(0.93271325,0.54893236,-0.53900013,0.94990045,59.205537,20.914905)" />
    <path
       style="fill:#ffffff;fill-opacity:0.684211;stroke:#000000;stroke-width:0.243377;stroke-linejoin:bevel;stroke-miterlimit:4;stroke-dasharray:none;stroke-opacity:1"
       id="path4570"
       d="m 9.2604171,15.875 -3.4370384,-1.984375 -1e-7,-3.9687499 3.4370383,-1.9843751 3.4370381,1.9843749 0,3.9687501 z"
       transform="matrix(0.93271325,0.54893236,-0.53900013,0.94990045,59.205537,13.506567)" />
    <path
       style="fill:#ffffff;fill-opacity:0.684211;stroke:#000000;stroke-width:0.243377;stroke-linejoin:bevel;stroke-miterlimit:4;stroke-dasharray:none;stroke-opacity:1"
       id="path4572"
       d="m 9.2604171,15.875 -3.4370384,-1.984375 -1e-7,-3.9687499 3.4370383,-1.9843751 3.4370381,1.9843749 0,3.9687501 z"
       transform="matrix(0.93271325,0.54893236,-0.53900013,0.94990045,59.205537,6.0982314)" />
    <path
       style="fill:#cd5c5c;fill-opacity:0.684211;stroke:#000000;stroke-width:0.243377;stroke-linejoin:bevel;stroke-miterlimit:4;stroke-dasharray:none;stroke-opacity:1"
       id="path4574"
       d="m 9.2604171,15.875 -3.4370384,-1.984375 -1e-7,-3.9687499 3.4370383,-1.9843751 3.4370381,1.9843749 0,3.9687501 z"
       transform="matrix(0.93271325,0.54893236,-0.53900013,0.94990045,59.205537,-1.3101022)" />
    <path
       style="fill:#cd5c5c;fill-opacity:0.684211;stroke:#000000;stroke-width:0.243377;stroke-linejoin:bevel;stroke-miterlimit:4;stroke-dasharray:none;stroke-opacity:1"
       id="path4576"
       d="m 9.2604171,15.875 -3.4370384,-1.984375 -1e-7,-3.9687499 3.4370383,-1.9843751 3.4370381,1.9843749 0,3.9687501 z"
       transform="matrix(0.93271325,0.54893236,-0.53900013,0.94990045,59.205537,-8.718436)" />
  </g>
</svg>
