<?xml version="1.0" encoding="UTF-8" standalone="no"?>
<svg
   xmlns:dc="http://purl.org/dc/elements/1.1/"
   xmlns:cc="http://creativecommons.org/ns#"
   xmlns:rdf="http://www.w3.org/1999/02/22-rdf-syntax-ns#"
   xmlns:svg="http://www.w3.org/2000/svg"
   xmlns="http://www.w3.org/2000/svg"
   xmlns:sodipodi="http://sodipodi.sourceforge.net/DTD/sodipodi-0.dtd"
   xmlns:inkscape="http://www.inkscape.org/namespaces/inkscape"
   width="2.25in"
   height="3.1500001in"
   viewBox="0 0 57.15 80.01001"
   version="1.1"
   id="svg8"
   sodipodi:docname="dinoCard.svg"
   inkscape:version="1.0.2 (e86c870879, 2021-01-15)">
  <defs
     id="defs2" />
  <sodipodi:namedview
     id="base"
     pagecolor="#ffffff"
     bordercolor="#666666"
     borderopacity="1.0"
     inkscape:pageopacity="0.0"
     inkscape:pageshadow="2"
     inkscape:zoom="4"
     inkscape:cx="103.90132"
     inkscape:cy="76.394628"
     inkscape:document-units="in"
     inkscape:current-layer="layer1"
     inkscape:document-rotation="0"
     showgrid="false"
     units="in"
     inkscape:pagecheckerboard="false"
     showguides="true"
     inkscape:window-width="1920"
     inkscape:window-height="1001"
     inkscape:window-x="-9"
     inkscape:window-y="-9"
     inkscape:window-maximized="1">
    <inkscape:grid
       type="xygrid"
       id="grid10" />
  </sodipodi:namedview>
  <metadata
     id="metadata5">
    <rdf:RDF>
      <cc:Work
         rdf:about="">
        <dc:format>image/svg+xml</dc:format>
        <dc:type
           rdf:resource="http://purl.org/dc/dcmitype/StillImage" />
        <dc:title></dc:title>
        <cc:license
           rdf:resource="" />
      </cc:Work>
    </rdf:RDF>
  </metadata>
  <g
     inkscape:label="Layer 1"
     inkscape:groupmode="layer"
     id="layer1">
    <circle
       id="path2634"
       style="fill:#ffaaaa;stroke:#000000;stroke-width:0.264583"
       cx="-0.13229167"
       cy="0"
       r="0.017483585" />
    <g
       id="g2952"
       transform="matrix(0.03466438,0,0,0.03466438,3.0664663,4.5721131)">
      <g
         id="XMLID_90_">
	<circle
   id="XMLID_91_"
   style="fill:#98c79c"
   cx="187.45599"
   cy="213.629"
   r="16" />

	<circle
   id="XMLID_92_"
   style="fill:#abd1ad"
   cx="139.45599"
   cy="245.629"
   r="16" />

	<circle
   id="XMLID_93_"
   style="fill:#abd1ad"
   cx="145.45599"
   cy="207.629"
   r="8" />

	<circle
   id="XMLID_102_"
   style="fill:#98c79c"
   cx="179.45599"
   cy="253.629"
   r="8" />

	<path
   id="XMLID_47_"
   style="fill:#abd1ad"
   d="m 63.887,200.946 v 0 c -1.034,-7.418 4.141,-14.271 11.56,-15.305 l 32.767,-4.567 c 0.989,-0.138 1.903,0.552 2.041,1.541 l 3.245,23.283 c 0.138,0.989 -0.552,1.903 -1.541,2.041 l -32.767,4.567 c -7.419,1.034 -14.271,-4.141 -15.305,-11.56 z" />

	<path
   id="XMLID_46_"
   style="fill:#abd1ad"
   d="m 73.649,231.519 v 0 c -1.034,-7.418 4.141,-14.271 11.56,-15.305 l 32.767,-4.567 c 0.989,-0.138 1.903,0.552 2.041,1.541 l 3.245,23.283 c 0.138,0.989 -0.552,1.903 -1.541,2.041 l -32.767,4.567 c -7.419,1.034 -14.271,-4.142 -15.305,-11.56 z" />

	<path
   id="XMLID_45_"
   style="fill:#abd1ad"
   d="m 152.001,326.913 h -5.102 c -9.157,0 -16.581,-7.424 -16.581,-16.581 v -51.773 h 38.264 v 51.773 c 0,9.157 -7.424,16.581 -16.581,16.581 z" />

	<path
   id="XMLID_44_"
   style="fill:#abd1ad"
   d="m 108.344,313.586 v -4.1 c 0,-7.36 5.966,-13.326 13.326,-13.326 h 27.052 c 8.04,0 14.558,6.518 14.558,14.558 v 1.637 c 0,8.04 -6.518,14.558 -14.558,14.558 H 121.67 c -7.36,0 -13.326,-5.967 -13.326,-13.327 z" />

	<path
   id="XMLID_43_"
   style="fill:#98c79c"
   d="m 217.175,326.913 h -5.102 c -9.157,0 -16.581,-7.424 -16.581,-16.581 v -51.773 h 38.264 v 51.773 c 0,9.157 -7.424,16.581 -16.581,16.581 z" />

	<path
   id="XMLID_42_"
   style="fill:#98c79c"
   d="m 173.518,313.586 v -4.1 c 0,-7.36 5.966,-13.326 13.326,-13.326 h 27.052 c 8.04,0 14.558,6.518 14.558,14.558 v 1.637 c 0,8.04 -6.518,14.558 -14.558,14.558 h -27.052 c -7.36,0 -13.326,-5.967 -13.326,-13.327 z" />

	<path
   id="XMLID_103_"
   style="fill:#abd1ad"
   d="m 293.518,196.57 c 0,-60.871 -31.84,-74.292 -31.84,-74.292 0,0 28.173,68.352 -38.16,69.352 -41.141,0.62 -62.662,-25.409 -60,-70 3.192,-53.465 1,-112.333 -40,-120 -63.422,-11.859 -88.235,44.037 -90,70 -2.31,33.979 28.433,52.114 50,50 18.042,-1.769 31.218,-6.598 30,0 -4.128,22.364 -10,26.745 -10,90 0,73.96 59.059,84.191 60,71.494 8.024,1.991 30.424,3.37 40,0.719 0.933,12.878 38.211,-4.345 48.74,-11.527 22.26,-15.187 41.26,-36.424 41.26,-75.746 z" />

	<circle
   id="XMLID_104_"
   style="fill:#272525"
   cx="96.172997"
   cy="46.629002"
   r="15" />

	<path
   id="XMLID_105_"
   style="fill:#98c79c"
   d="m 163.456,258.559 v 63.742 c 3.153,-3.018 5.125,-7.26 5.125,-11.969 v -51.773 z" />

	<g
   id="XMLID_106_">
		<path
   id="XMLID_107_"
   style="fill:#98c79c"
   d="m 163.456,65.953 v 57.095 c 0.023,-0.475 0.033,-0.94 0.062,-1.419 1.116,-18.706 1.571,-38.071 -0.062,-55.676 z" />

		<path
   id="XMLID_108_"
   style="fill:#98c79c"
   d="m 261.678,122.277 c 0,0 28.173,68.352 -38.16,69.352 -37,0.558 -58.119,-20.449 -60.062,-57.117 v 149.023 c 0.025,-0.136 0.051,-0.271 0.062,-0.413 8.024,1.991 30.424,3.37 40,0.719 0.933,12.878 38.211,-4.345 48.74,-11.527 22.26,-15.185 41.26,-36.423 41.26,-75.745 0,-60.87 -31.84,-74.292 -31.84,-74.292 z" />

	</g>

	<circle
   id="XMLID_109_"
   style="fill:#f6d563"
   cx="187.45599"
   cy="213.629"
   r="16" />

	<circle
   id="XMLID_34_"
   style="fill:#f6d563"
   cx="274.45901"
   cy="220.62601"
   r="11" />

	<circle
   id="XMLID_110_"
   style="fill:#ffe477"
   cx="145.45599"
   cy="207.629"
   r="8" />

	<circle
   id="XMLID_138_"
   style="fill:#f6d563"
   cx="179.45599"
   cy="253.629"
   r="8" />

	<circle
   id="XMLID_3_"
   style="fill:#f6d563"
   cx="281.47601"
   cy="200.80299"
   r="4.698" />

</g>
      <g
         id="g2878">
</g>
      <g
         id="g2880">
</g>
      <g
         id="g2882">
</g>
      <g
         id="g2884">
</g>
      <g
         id="g2886">
</g>
      <g
         id="g2888">
</g>
      <g
         id="g2890">
</g>
      <g
         id="g2892">
</g>
      <g
         id="g2894">
</g>
      <g
         id="g2896">
</g>
      <g
         id="g2898">
</g>
      <g
         id="g2900">
</g>
      <g
         id="g2902">
</g>
      <g
         id="g2904">
</g>
      <g
         id="g2906">
</g>
    </g>
    <g
       id="g3028"
       transform="matrix(0.03461856,0,0,0.03461856,42.974017,4.0136434)"
       inkscape:transform-center-x="14.287501"
       inkscape:transform-center-y="-3.9687504">
      <g
         id="g2996">
	<circle
   id="circle2954"
   style="fill:#98c79c"
   cx="187.45599"
   cy="213.629"
   r="16" />

	<circle
   id="circle2956"
   style="fill:#abd1ad"
   cx="139.45599"
   cy="245.629"
   r="16" />

	<circle
   id="circle2958"
   style="fill:#abd1ad"
   cx="145.45599"
   cy="207.629"
   r="8" />

	<circle
   id="circle2960"
   style="fill:#98c79c"
   cx="179.45599"
   cy="253.629"
   r="8" />

	<path
   id="path2962"
   style="fill:#abd1ad"
   d="m 63.887,200.946 v 0 c -1.034,-7.418 4.141,-14.271 11.56,-15.305 l 32.767,-4.567 c 0.989,-0.138 1.903,0.552 2.041,1.541 l 3.245,23.283 c 0.138,0.989 -0.552,1.903 -1.541,2.041 l -32.767,4.567 c -7.419,1.034 -14.271,-4.141 -15.305,-11.56 z" />

	<path
   id="path2964"
   style="fill:#abd1ad"
   d="m 73.649,231.519 v 0 c -1.034,-7.418 4.141,-14.271 11.56,-15.305 l 32.767,-4.567 c 0.989,-0.138 1.903,0.552 2.041,1.541 l 3.245,23.283 c 0.138,0.989 -0.552,1.903 -1.541,2.041 l -32.767,4.567 c -7.419,1.034 -14.271,-4.142 -15.305,-11.56 z" />

	<path
   id="path2966"
   style="fill:#abd1ad"
   d="m 152.001,326.913 h -5.102 c -9.157,0 -16.581,-7.424 -16.581,-16.581 v -51.773 h 38.264 v 51.773 c 0,9.157 -7.424,16.581 -16.581,16.581 z" />

	<path
   id="path2968"
   style="fill:#abd1ad"
   d="m 108.344,313.586 v -4.1 c 0,-7.36 5.966,-13.326 13.326,-13.326 h 27.052 c 8.04,0 14.558,6.518 14.558,14.558 v 1.637 c 0,8.04 -6.518,14.558 -14.558,14.558 H 121.67 c -7.36,0 -13.326,-5.967 -13.326,-13.327 z" />

	<path
   id="path2970"
   style="fill:#98c79c"
   d="m 217.175,326.913 h -5.102 c -9.157,0 -16.581,-7.424 -16.581,-16.581 v -51.773 h 38.264 v 51.773 c 0,9.157 -7.424,16.581 -16.581,16.581 z" />

	<path
   id="path2972"
   style="fill:#98c79c"
   d="m 173.518,313.586 v -4.1 c 0,-7.36 5.966,-13.326 13.326,-13.326 h 27.052 c 8.04,0 14.558,6.518 14.558,14.558 v 1.637 c 0,8.04 -6.518,14.558 -14.558,14.558 h -27.052 c -7.36,0 -13.326,-5.967 -13.326,-13.327 z" />

	<path
   id="path2974"
   style="fill:#abd1ad"
   d="m 293.518,196.57 c 0,-60.871 -31.84,-74.292 -31.84,-74.292 0,0 28.173,68.352 -38.16,69.352 -41.141,0.62 -62.662,-25.409 -60,-70 3.192,-53.465 1,-112.333 -40,-120 -63.422,-11.859 -88.235,44.037 -90,70 -2.31,33.979 28.433,52.114 50,50 18.042,-1.769 31.218,-6.598 30,0 -4.128,22.364 -10,26.745 -10,90 0,73.96 59.059,84.191 60,71.494 8.024,1.991 30.424,3.37 40,0.719 0.933,12.878 38.211,-4.345 48.74,-11.527 22.26,-15.187 41.26,-36.424 41.26,-75.746 z" />

	<circle
   id="circle2976"
   style="fill:#272525"
   cx="96.172997"
   cy="46.629002"
   r="15" />

	<path
   id="path2978"
   style="fill:#98c79c"
   d="m 163.456,258.559 v 63.742 c 3.153,-3.018 5.125,-7.26 5.125,-11.969 v -51.773 z" />

	<g
   id="g2984">
		<path
   id="path2980"
   style="fill:#98c79c"
   d="m 163.456,65.953 v 57.095 c 0.023,-0.475 0.033,-0.94 0.062,-1.419 1.116,-18.706 1.571,-38.071 -0.062,-55.676 z" />

		<path
   id="path2982"
   style="fill:#98c79c"
   d="m 261.678,122.277 c 0,0 28.173,68.352 -38.16,69.352 -37,0.558 -58.119,-20.449 -60.062,-57.117 v 149.023 c 0.025,-0.136 0.051,-0.271 0.062,-0.413 8.024,1.991 30.424,3.37 40,0.719 0.933,12.878 38.211,-4.345 48.74,-11.527 22.26,-15.185 41.26,-36.423 41.26,-75.745 0,-60.87 -31.84,-74.292 -31.84,-74.292 z" />

	</g>

	<circle
   id="circle2986"
   style="fill:#f6d563"
   cx="187.45599"
   cy="213.629"
   r="16" />

	<circle
   id="circle2988"
   style="fill:#f6d563"
   cx="274.45901"
   cy="220.62601"
   r="11" />

	<circle
   id="circle2990"
   style="fill:#ffe477"
   cx="145.45599"
   cy="207.629"
   r="8" />

	<circle
   id="circle2992"
   style="fill:#f6d563"
   cx="179.45599"
   cy="253.629"
   r="8" />

	<circle
   id="circle2994"
   style="fill:#f6d563"
   cx="281.47601"
   cy="200.80299"
   r="4.698" />

</g>
      <g
         id="g2998">
</g>
      <g
         id="g3000">
</g>
      <g
         id="g3002">
</g>
      <g
         id="g3004">
</g>
      <g
         id="g3006">
</g>
      <g
         id="g3008">
</g>
      <g
         id="g3010">
</g>
      <g
         id="g3012">
</g>
      <g
         id="g3014">
</g>
      <g
         id="g3016">
</g>
      <g
         id="g3018">
</g>
      <g
         id="g3020">
</g>
      <g
         id="g3022">
</g>
      <g
         id="g3024">
</g>
      <g
         id="g3026">
</g>
    </g>
    <g
       id="g3104"
       transform="matrix(0.03461856,0,0,0.03461856,23.268102,29.94281)"
       inkscape:transform-center-x="14.287501"
       inkscape:transform-center-y="-3.9687504">
      <g
         id="g3072">
	<circle
   id="circle3030"
   style="fill:#98c79c"
   cx="187.45599"
   cy="213.629"
   r="16" />

	<circle
   id="circle3032"
   style="fill:#abd1ad"
   cx="139.45599"
   cy="245.629"
   r="16" />

	<circle
   id="circle3034"
   style="fill:#abd1ad"
   cx="145.45599"
   cy="207.629"
   r="8" />

	<circle
   id="circle3036"
   style="fill:#98c79c"
   cx="179.45599"
   cy="253.629"
   r="8" />

	<path
   id="path3038"
   style="fill:#abd1ad"
   d="m 63.887,200.946 v 0 c -1.034,-7.418 4.141,-14.271 11.56,-15.305 l 32.767,-4.567 c 0.989,-0.138 1.903,0.552 2.041,1.541 l 3.245,23.283 c 0.138,0.989 -0.552,1.903 -1.541,2.041 l -32.767,4.567 c -7.419,1.034 -14.271,-4.141 -15.305,-11.56 z" />

	<path
   id="path3040"
   style="fill:#abd1ad"
   d="m 73.649,231.519 v 0 c -1.034,-7.418 4.141,-14.271 11.56,-15.305 l 32.767,-4.567 c 0.989,-0.138 1.903,0.552 2.041,1.541 l 3.245,23.283 c 0.138,0.989 -0.552,1.903 -1.541,2.041 l -32.767,4.567 c -7.419,1.034 -14.271,-4.142 -15.305,-11.56 z" />

	<path
   id="path3042"
   style="fill:#abd1ad"
   d="m 152.001,326.913 h -5.102 c -9.157,0 -16.581,-7.424 -16.581,-16.581 v -51.773 h 38.264 v 51.773 c 0,9.157 -7.424,16.581 -16.581,16.581 z" />

	<path
   id="path3044"
   style="fill:#abd1ad"
   d="m 108.344,313.586 v -4.1 c 0,-7.36 5.966,-13.326 13.326,-13.326 h 27.052 c 8.04,0 14.558,6.518 14.558,14.558 v 1.637 c 0,8.04 -6.518,14.558 -14.558,14.558 H 121.67 c -7.36,0 -13.326,-5.967 -13.326,-13.327 z" />

	<path
   id="path3046"
   style="fill:#98c79c"
   d="m 217.175,326.913 h -5.102 c -9.157,0 -16.581,-7.424 -16.581,-16.581 v -51.773 h 38.264 v 51.773 c 0,9.157 -7.424,16.581 -16.581,16.581 z" />

	<path
   id="path3048"
   style="fill:#98c79c"
   d="m 173.518,313.586 v -4.1 c 0,-7.36 5.966,-13.326 13.326,-13.326 h 27.052 c 8.04,0 14.558,6.518 14.558,14.558 v 1.637 c 0,8.04 -6.518,14.558 -14.558,14.558 h -27.052 c -7.36,0 -13.326,-5.967 -13.326,-13.327 z" />

	<path
   id="path3050"
   style="fill:#abd1ad"
   d="m 293.518,196.57 c 0,-60.871 -31.84,-74.292 -31.84,-74.292 0,0 28.173,68.352 -38.16,69.352 -41.141,0.62 -62.662,-25.409 -60,-70 3.192,-53.465 1,-112.333 -40,-120 -63.422,-11.859 -88.235,44.037 -90,70 -2.31,33.979 28.433,52.114 50,50 18.042,-1.769 31.218,-6.598 30,0 -4.128,22.364 -10,26.745 -10,90 0,73.96 59.059,84.191 60,71.494 8.024,1.991 30.424,3.37 40,0.719 0.933,12.878 38.211,-4.345 48.74,-11.527 22.26,-15.187 41.26,-36.424 41.26,-75.746 z" />

	<circle
   id="circle3052"
   style="fill:#272525"
   cx="96.172997"
   cy="46.629002"
   r="15" />

	<path
   id="path3054"
   style="fill:#98c79c"
   d="m 163.456,258.559 v 63.742 c 3.153,-3.018 5.125,-7.26 5.125,-11.969 v -51.773 z" />

	<g
   id="g3060">
		<path
   id="path3056"
   style="fill:#98c79c"
   d="m 163.456,65.953 v 57.095 c 0.023,-0.475 0.033,-0.94 0.062,-1.419 1.116,-18.706 1.571,-38.071 -0.062,-55.676 z" />

		<path
   id="path3058"
   style="fill:#98c79c"
   d="m 261.678,122.277 c 0,0 28.173,68.352 -38.16,69.352 -37,0.558 -58.119,-20.449 -60.062,-57.117 v 149.023 c 0.025,-0.136 0.051,-0.271 0.062,-0.413 8.024,1.991 30.424,3.37 40,0.719 0.933,12.878 38.211,-4.345 48.74,-11.527 22.26,-15.185 41.26,-36.423 41.26,-75.745 0,-60.87 -31.84,-74.292 -31.84,-74.292 z" />

	</g>

	<circle
   id="circle3062"
   style="fill:#f6d563"
   cx="187.45599"
   cy="213.629"
   r="16" />

	<circle
   id="circle3064"
   style="fill:#f6d563"
   cx="274.45901"
   cy="220.62601"
   r="11" />

	<circle
   id="circle3066"
   style="fill:#ffe477"
   cx="145.45599"
   cy="207.629"
   r="8" />

	<circle
   id="circle3068"
   style="fill:#f6d563"
   cx="179.45599"
   cy="253.629"
   r="8" />

	<circle
   id="circle3070"
   style="fill:#f6d563"
   cx="281.47601"
   cy="200.80299"
   r="4.698" />

</g>
      <g
         id="g3074">
</g>
      <g
         id="g3076">
</g>
      <g
         id="g3078">
</g>
      <g
         id="g3080">
</g>
      <g
         id="g3082">
</g>
      <g
         id="g3084">
</g>
      <g
         id="g3086">
</g>
      <g
         id="g3088">
</g>
      <g
         id="g3090">
</g>
      <g
         id="g3092">
</g>
      <g
         id="g3094">
</g>
      <g
         id="g3096">
</g>
      <g
         id="g3098">
</g>
      <g
         id="g3100">
</g>
      <g
         id="g3102">
</g>
    </g>
    <g
       id="g3180"
       transform="matrix(0.03461856,0,0,-0.03461856,3.1542237,75.788217)"
       inkscape:transform-center-x="14.287501"
       inkscape:transform-center-y="3.9687509">
      <g
         id="g3148">
	<circle
   id="circle3106"
   style="fill:#98c79c"
   cx="187.45599"
   cy="213.629"
   r="16" />

	<circle
   id="circle3108"
   style="fill:#abd1ad"
   cx="139.45599"
   cy="245.629"
   r="16" />

	<circle
   id="circle3110"
   style="fill:#abd1ad"
   cx="145.45599"
   cy="207.629"
   r="8" />

	<circle
   id="circle3112"
   style="fill:#98c79c"
   cx="179.45599"
   cy="253.629"
   r="8" />

	<path
   id="path3114"
   style="fill:#abd1ad"
   d="m 63.887,200.946 v 0 c -1.034,-7.418 4.141,-14.271 11.56,-15.305 l 32.767,-4.567 c 0.989,-0.138 1.903,0.552 2.041,1.541 l 3.245,23.283 c 0.138,0.989 -0.552,1.903 -1.541,2.041 l -32.767,4.567 c -7.419,1.034 -14.271,-4.141 -15.305,-11.56 z" />

	<path
   id="path3116"
   style="fill:#abd1ad"
   d="m 73.649,231.519 v 0 c -1.034,-7.418 4.141,-14.271 11.56,-15.305 l 32.767,-4.567 c 0.989,-0.138 1.903,0.552 2.041,1.541 l 3.245,23.283 c 0.138,0.989 -0.552,1.903 -1.541,2.041 l -32.767,4.567 c -7.419,1.034 -14.271,-4.142 -15.305,-11.56 z" />

	<path
   id="path3118"
   style="fill:#abd1ad"
   d="m 152.001,326.913 h -5.102 c -9.157,0 -16.581,-7.424 -16.581,-16.581 v -51.773 h 38.264 v 51.773 c 0,9.157 -7.424,16.581 -16.581,16.581 z" />

	<path
   id="path3120"
   style="fill:#abd1ad"
   d="m 108.344,313.586 v -4.1 c 0,-7.36 5.966,-13.326 13.326,-13.326 h 27.052 c 8.04,0 14.558,6.518 14.558,14.558 v 1.637 c 0,8.04 -6.518,14.558 -14.558,14.558 H 121.67 c -7.36,0 -13.326,-5.967 -13.326,-13.327 z" />

	<path
   id="path3122"
   style="fill:#98c79c"
   d="m 217.175,326.913 h -5.102 c -9.157,0 -16.581,-7.424 -16.581,-16.581 v -51.773 h 38.264 v 51.773 c 0,9.157 -7.424,16.581 -16.581,16.581 z" />

	<path
   id="path3124"
   style="fill:#98c79c"
   d="m 173.518,313.586 v -4.1 c 0,-7.36 5.966,-13.326 13.326,-13.326 h 27.052 c 8.04,0 14.558,6.518 14.558,14.558 v 1.637 c 0,8.04 -6.518,14.558 -14.558,14.558 h -27.052 c -7.36,0 -13.326,-5.967 -13.326,-13.327 z" />

	<path
   id="path3126"
   style="fill:#abd1ad"
   d="m 293.518,196.57 c 0,-60.871 -31.84,-74.292 -31.84,-74.292 0,0 28.173,68.352 -38.16,69.352 -41.141,0.62 -62.662,-25.409 -60,-70 3.192,-53.465 1,-112.333 -40,-120 -63.422,-11.859 -88.235,44.037 -90,70 -2.31,33.979 28.433,52.114 50,50 18.042,-1.769 31.218,-6.598 30,0 -4.128,22.364 -10,26.745 -10,90 0,73.96 59.059,84.191 60,71.494 8.024,1.991 30.424,3.37 40,0.719 0.933,12.878 38.211,-4.345 48.74,-11.527 22.26,-15.187 41.26,-36.424 41.26,-75.746 z" />

	<circle
   id="circle3128"
   style="fill:#272525"
   cx="96.172997"
   cy="46.629002"
   r="15" />

	<path
   id="path3130"
   style="fill:#98c79c"
   d="m 163.456,258.559 v 63.742 c 3.153,-3.018 5.125,-7.26 5.125,-11.969 v -51.773 z" />

	<g
   id="g3136">
		<path
   id="path3132"
   style="fill:#98c79c"
   d="m 163.456,65.953 v 57.095 c 0.023,-0.475 0.033,-0.94 0.062,-1.419 1.116,-18.706 1.571,-38.071 -0.062,-55.676 z" />

		<path
   id="path3134"
   style="fill:#98c79c"
   d="m 261.678,122.277 c 0,0 28.173,68.352 -38.16,69.352 -37,0.558 -58.119,-20.449 -60.062,-57.117 v 149.023 c 0.025,-0.136 0.051,-0.271 0.062,-0.413 8.024,1.991 30.424,3.37 40,0.719 0.933,12.878 38.211,-4.345 48.74,-11.527 22.26,-15.185 41.26,-36.423 41.26,-75.745 0,-60.87 -31.84,-74.292 -31.84,-74.292 z" />

	</g>

	<circle
   id="circle3138"
   style="fill:#f6d563"
   cx="187.45599"
   cy="213.629"
   r="16" />

	<circle
   id="circle3140"
   style="fill:#f6d563"
   cx="274.45901"
   cy="220.62601"
   r="11" />

	<circle
   id="circle3142"
   style="fill:#ffe477"
   cx="145.45599"
   cy="207.629"
   r="8" />

	<circle
   id="circle3144"
   style="fill:#f6d563"
   cx="179.45599"
   cy="253.629"
   r="8" />

	<circle
   id="circle3146"
   style="fill:#f6d563"
   cx="281.47601"
   cy="200.80299"
   r="4.698" />

</g>
      <g
         id="g3150">
</g>
      <g
         id="g3152">
</g>
      <g
         id="g3154">
</g>
      <g
         id="g3156">
</g>
      <g
         id="g3158">
</g>
      <g
         id="g3160">
</g>
      <g
         id="g3162">
</g>
      <g
         id="g3164">
</g>
      <g
         id="g3166">
</g>
      <g
         id="g3168">
</g>
      <g
         id="g3170">
</g>
      <g
         id="g3172">
</g>
      <g
         id="g3174">
</g>
      <g
         id="g3176">
</g>
      <g
         id="g3178">
</g>
    </g>
    <g
       id="g3256"
       transform="matrix(0.03461856,0,0,-0.03461856,42.627848,75.849212)"
       inkscape:transform-center-x="14.287501"
       inkscape:transform-center-y="3.9687509">
      <g
         id="g3224">
	<circle
   id="circle3182"
   style="fill:#98c79c"
   cx="187.45599"
   cy="213.629"
   r="16" />

	<circle
   id="circle3184"
   style="fill:#abd1ad"
   cx="139.45599"
   cy="245.629"
   r="16" />

	<circle
   id="circle3186"
   style="fill:#abd1ad"
   cx="145.45599"
   cy="207.629"
   r="8" />

	<circle
   id="circle3188"
   style="fill:#98c79c"
   cx="179.45599"
   cy="253.629"
   r="8" />

	<path
   id="path3190"
   style="fill:#abd1ad"
   d="m 63.887,200.946 v 0 c -1.034,-7.418 4.141,-14.271 11.56,-15.305 l 32.767,-4.567 c 0.989,-0.138 1.903,0.552 2.041,1.541 l 3.245,23.283 c 0.138,0.989 -0.552,1.903 -1.541,2.041 l -32.767,4.567 c -7.419,1.034 -14.271,-4.141 -15.305,-11.56 z" />

	<path
   id="path3192"
   style="fill:#abd1ad"
   d="m 73.649,231.519 v 0 c -1.034,-7.418 4.141,-14.271 11.56,-15.305 l 32.767,-4.567 c 0.989,-0.138 1.903,0.552 2.041,1.541 l 3.245,23.283 c 0.138,0.989 -0.552,1.903 -1.541,2.041 l -32.767,4.567 c -7.419,1.034 -14.271,-4.142 -15.305,-11.56 z" />

	<path
   id="path3194"
   style="fill:#abd1ad"
   d="m 152.001,326.913 h -5.102 c -9.157,0 -16.581,-7.424 -16.581,-16.581 v -51.773 h 38.264 v 51.773 c 0,9.157 -7.424,16.581 -16.581,16.581 z" />

	<path
   id="path3196"
   style="fill:#abd1ad"
   d="m 108.344,313.586 v -4.1 c 0,-7.36 5.966,-13.326 13.326,-13.326 h 27.052 c 8.04,0 14.558,6.518 14.558,14.558 v 1.637 c 0,8.04 -6.518,14.558 -14.558,14.558 H 121.67 c -7.36,0 -13.326,-5.967 -13.326,-13.327 z" />

	<path
   id="path3198"
   style="fill:#98c79c"
   d="m 217.175,326.913 h -5.102 c -9.157,0 -16.581,-7.424 -16.581,-16.581 v -51.773 h 38.264 v 51.773 c 0,9.157 -7.424,16.581 -16.581,16.581 z" />

	<path
   id="path3200"
   style="fill:#98c79c"
   d="m 173.518,313.586 v -4.1 c 0,-7.36 5.966,-13.326 13.326,-13.326 h 27.052 c 8.04,0 14.558,6.518 14.558,14.558 v 1.637 c 0,8.04 -6.518,14.558 -14.558,14.558 h -27.052 c -7.36,0 -13.326,-5.967 -13.326,-13.327 z" />

	<path
   id="path3202"
   style="fill:#abd1ad"
   d="m 293.518,196.57 c 0,-60.871 -31.84,-74.292 -31.84,-74.292 0,0 28.173,68.352 -38.16,69.352 -41.141,0.62 -62.662,-25.409 -60,-70 3.192,-53.465 1,-112.333 -40,-120 -63.422,-11.859 -88.235,44.037 -90,70 -2.31,33.979 28.433,52.114 50,50 18.042,-1.769 31.218,-6.598 30,0 -4.128,22.364 -10,26.745 -10,90 0,73.96 59.059,84.191 60,71.494 8.024,1.991 30.424,3.37 40,0.719 0.933,12.878 38.211,-4.345 48.74,-11.527 22.26,-15.187 41.26,-36.424 41.26,-75.746 z" />

	<circle
   id="circle3204"
   style="fill:#272525"
   cx="96.172997"
   cy="46.629002"
   r="15" />

	<path
   id="path3206"
   style="fill:#98c79c"
   d="m 163.456,258.559 v 63.742 c 3.153,-3.018 5.125,-7.26 5.125,-11.969 v -51.773 z" />

	<g
   id="g3212">
		<path
   id="path3208"
   style="fill:#98c79c"
   d="m 163.456,65.953 v 57.095 c 0.023,-0.475 0.033,-0.94 0.062,-1.419 1.116,-18.706 1.571,-38.071 -0.062,-55.676 z" />

		<path
   id="path3210"
   style="fill:#98c79c"
   d="m 261.678,122.277 c 0,0 28.173,68.352 -38.16,69.352 -37,0.558 -58.119,-20.449 -60.062,-57.117 v 149.023 c 0.025,-0.136 0.051,-0.271 0.062,-0.413 8.024,1.991 30.424,3.37 40,0.719 0.933,12.878 38.211,-4.345 48.74,-11.527 22.26,-15.185 41.26,-36.423 41.26,-75.745 0,-60.87 -31.84,-74.292 -31.84,-74.292 z" />

	</g>

	<circle
   id="circle3214"
   style="fill:#f6d563"
   cx="187.45599"
   cy="213.629"
   r="16" />

	<circle
   id="circle3216"
   style="fill:#f6d563"
   cx="274.45901"
   cy="220.62601"
   r="11" />

	<circle
   id="circle3218"
   style="fill:#ffe477"
   cx="145.45599"
   cy="207.629"
   r="8" />

	<circle
   id="circle3220"
   style="fill:#f6d563"
   cx="179.45599"
   cy="253.629"
   r="8" />

	<circle
   id="circle3222"
   style="fill:#f6d563"
   cx="281.47601"
   cy="200.80299"
   r="4.698" />

</g>
      <g
         id="g3226">
</g>
      <g
         id="g3228">
</g>
      <g
         id="g3230">
</g>
      <g
         id="g3232">
</g>
      <g
         id="g3234">
</g>
      <g
         id="g3236">
</g>
      <g
         id="g3238">
</g>
      <g
         id="g3240">
</g>
      <g
         id="g3242">
</g>
      <g
         id="g3244">
</g>
      <g
         id="g3246">
</g>
      <g
         id="g3248">
</g>
      <g
         id="g3250">
</g>
      <g
         id="g3252">
</g>
      <g
         id="g3254">
</g>
    </g>
    <g
       id="g3332"
       transform="matrix(0.03461856,0,0,-0.03461856,23.268102,55.944467)"
       inkscape:transform-center-x="14.287501"
       inkscape:transform-center-y="3.9687507">
      <g
         id="g3300">
	<circle
   id="circle3258"
   style="fill:#98c79c"
   cx="187.45599"
   cy="213.629"
   r="16" />

	<circle
   id="circle3260"
   style="fill:#abd1ad"
   cx="139.45599"
   cy="245.629"
   r="16" />

	<circle
   id="circle3262"
   style="fill:#abd1ad"
   cx="145.45599"
   cy="207.629"
   r="8" />

	<circle
   id="circle3264"
   style="fill:#98c79c"
   cx="179.45599"
   cy="253.629"
   r="8" />

	<path
   id="path3266"
   style="fill:#abd1ad"
   d="m 63.887,200.946 v 0 c -1.034,-7.418 4.141,-14.271 11.56,-15.305 l 32.767,-4.567 c 0.989,-0.138 1.903,0.552 2.041,1.541 l 3.245,23.283 c 0.138,0.989 -0.552,1.903 -1.541,2.041 l -32.767,4.567 c -7.419,1.034 -14.271,-4.141 -15.305,-11.56 z" />

	<path
   id="path3268"
   style="fill:#abd1ad"
   d="m 73.649,231.519 v 0 c -1.034,-7.418 4.141,-14.271 11.56,-15.305 l 32.767,-4.567 c 0.989,-0.138 1.903,0.552 2.041,1.541 l 3.245,23.283 c 0.138,0.989 -0.552,1.903 -1.541,2.041 l -32.767,4.567 c -7.419,1.034 -14.271,-4.142 -15.305,-11.56 z" />

	<path
   id="path3270"
   style="fill:#abd1ad"
   d="m 152.001,326.913 h -5.102 c -9.157,0 -16.581,-7.424 -16.581,-16.581 v -51.773 h 38.264 v 51.773 c 0,9.157 -7.424,16.581 -16.581,16.581 z" />

	<path
   id="path3272"
   style="fill:#abd1ad"
   d="m 108.344,313.586 v -4.1 c 0,-7.36 5.966,-13.326 13.326,-13.326 h 27.052 c 8.04,0 14.558,6.518 14.558,14.558 v 1.637 c 0,8.04 -6.518,14.558 -14.558,14.558 H 121.67 c -7.36,0 -13.326,-5.967 -13.326,-13.327 z" />

	<path
   id="path3274"
   style="fill:#98c79c"
   d="m 217.175,326.913 h -5.102 c -9.157,0 -16.581,-7.424 -16.581,-16.581 v -51.773 h 38.264 v 51.773 c 0,9.157 -7.424,16.581 -16.581,16.581 z" />

	<path
   id="path3276"
   style="fill:#98c79c"
   d="m 173.518,313.586 v -4.1 c 0,-7.36 5.966,-13.326 13.326,-13.326 h 27.052 c 8.04,0 14.558,6.518 14.558,14.558 v 1.637 c 0,8.04 -6.518,14.558 -14.558,14.558 h -27.052 c -7.36,0 -13.326,-5.967 -13.326,-13.327 z" />

	<path
   id="path3278"
   style="fill:#abd1ad"
   d="m 293.518,196.57 c 0,-60.871 -31.84,-74.292 -31.84,-74.292 0,0 28.173,68.352 -38.16,69.352 -41.141,0.62 -62.662,-25.409 -60,-70 3.192,-53.465 1,-112.333 -40,-120 -63.422,-11.859 -88.235,44.037 -90,70 -2.31,33.979 28.433,52.114 50,50 18.042,-1.769 31.218,-6.598 30,0 -4.128,22.364 -10,26.745 -10,90 0,73.96 59.059,84.191 60,71.494 8.024,1.991 30.424,3.37 40,0.719 0.933,12.878 38.211,-4.345 48.74,-11.527 22.26,-15.187 41.26,-36.424 41.26,-75.746 z" />

	<circle
   id="circle3280"
   style="fill:#272525"
   cx="96.172997"
   cy="46.629002"
   r="15" />

	<path
   id="path3282"
   style="fill:#98c79c"
   d="m 163.456,258.559 v 63.742 c 3.153,-3.018 5.125,-7.26 5.125,-11.969 v -51.773 z" />

	<g
   id="g3288">
		<path
   id="path3284"
   style="fill:#98c79c"
   d="m 163.456,65.953 v 57.095 c 0.023,-0.475 0.033,-0.94 0.062,-1.419 1.116,-18.706 1.571,-38.071 -0.062,-55.676 z" />

		<path
   id="path3286"
   style="fill:#98c79c"
   d="m 261.678,122.277 c 0,0 28.173,68.352 -38.16,69.352 -37,0.558 -58.119,-20.449 -60.062,-57.117 v 149.023 c 0.025,-0.136 0.051,-0.271 0.062,-0.413 8.024,1.991 30.424,3.37 40,0.719 0.933,12.878 38.211,-4.345 48.74,-11.527 22.26,-15.185 41.26,-36.423 41.26,-75.745 0,-60.87 -31.84,-74.292 -31.84,-74.292 z" />

	</g>

	<circle
   id="circle3290"
   style="fill:#f6d563"
   cx="187.45599"
   cy="213.629"
   r="16" />

	<circle
   id="circle3292"
   style="fill:#f6d563"
   cx="274.45901"
   cy="220.62601"
   r="11" />

	<circle
   id="circle3294"
   style="fill:#ffe477"
   cx="145.45599"
   cy="207.629"
   r="8" />

	<circle
   id="circle3296"
   style="fill:#f6d563"
   cx="179.45599"
   cy="253.629"
   r="8" />

	<circle
   id="circle3298"
   style="fill:#f6d563"
   cx="281.47601"
   cy="200.80299"
   r="4.698" />

</g>
      <g
         id="g3302">
</g>
      <g
         id="g3304">
</g>
      <g
         id="g3306">
</g>
      <g
         id="g3308">
</g>
      <g
         id="g3310">
</g>
      <g
         id="g3312">
</g>
      <g
         id="g3314">
</g>
      <g
         id="g3316">
</g>
      <g
         id="g3318">
</g>
      <g
         id="g3320">
</g>
      <g
         id="g3322">
</g>
      <g
         id="g3324">
</g>
      <g
         id="g3326">
</g>
      <g
         id="g3328">
</g>
      <g
         id="g3330">
</g>
    </g>
    <g
       id="g3453"
       transform="matrix(0.09051485,0,0,0.09051485,43.212372,-29.805437)">
      <g
         id="g3393"
         transform="matrix(0.23039213,0,0,0.23039213,-229.99809,378.98041)">
	<g
   id="g3391">
		<g
   id="g3389">
			
				<rect
   x="168.218"
   y="189.438"
   transform="matrix(-0.8194,-0.5733,0.5733,-0.8194,186.4107,524.366)"
   width="15.2"
   height="86.752998"
   id="rect3383" />

			
				<rect
   x="133.201"
   y="320.82401"
   transform="matrix(-0.8429,-0.538,0.538,-0.8429,58.2574,765.0392)"
   width="15.199"
   height="106.383"
   id="rect3385" />

			<path
   d="m 344.718,476.82 h -0.001 -15.2 v 19.98 h -15.2 v -30.113 h -15.2 V 496.8 h -15.2 V 456.838 H 469.149 L 373.109,306.362 H 434.01 L 341.735,174.486 h 50.6 L 255.999,0 119.663,174.487 h 50.6 L 77.989,306.363 H 138.89 L 42.85,456.839 H 228.082 V 496.8 H 144.2 V 512 h 83.881 55.838 83.881 V 496.8 H 344.717 V 476.82 Z M 228.08,441.638 H 70.582 l 86.339,-135.275 h 62.263 v -15.2 h -52.561 -13.867 -45.58 l 81.639,-116.676 h 30.37 v -15.2 H 199.45 184.857 150.829 l 105.17,-134.601 105.172,134.6 H 327.143 312.55 239.448 v 15.2 h 83.737 l 10.636,15.2 h -63.973 v 15.2 h 74.608 l 60.369,86.277 H 359.244 345.377 239.449 v 15.2 h 115.629 l 9.701,15.2 h -94.93 v 15.2 H 374.481 L 441.418,441.64 H 283.919 228.08 Z M 268.719,496.8 H 243.28 v -39.962 h 25.439 z"
   id="path3387" />

		</g>

	</g>

</g>
      <g
         id="g3395">
</g>
      <g
         id="g3397">
</g>
      <g
         id="g3399">
</g>
      <g
         id="g3401">
</g>
      <g
         id="g3403">
</g>
      <g
         id="g3405">
</g>
      <g
         id="g3407">
</g>
      <g
         id="g3409">
</g>
      <g
         id="g3411">
</g>
      <g
         id="g3413">
</g>
      <g
         id="g3415">
</g>
      <g
         id="g3417">
</g>
      <g
         id="g3419">
</g>
      <g
         id="g3421">
</g>
      <g
         id="g3423">
</g>
    </g>
    <g
       id="g3497"
       transform="matrix(0.09051485,0,0,0.09051485,25.882163,-4.0085614)">
      <g
         id="g3465"
         transform="matrix(0.23039213,0,0,0.23039213,-229.99809,378.98041)">
	<g
   id="g3463">
		<g
   id="g3461">
			
				<rect
   x="168.218"
   y="189.438"
   transform="matrix(-0.8194,-0.5733,0.5733,-0.8194,186.4107,524.366)"
   width="15.2"
   height="86.752998"
   id="rect3455" />

			
				<rect
   x="133.201"
   y="320.82401"
   transform="matrix(-0.8429,-0.538,0.538,-0.8429,58.2574,765.0392)"
   width="15.199"
   height="106.383"
   id="rect3457" />

			<path
   d="m 344.718,476.82 h -0.001 -15.2 v 19.98 h -15.2 v -30.113 h -15.2 V 496.8 h -15.2 V 456.838 H 469.149 L 373.109,306.362 H 434.01 L 341.735,174.486 h 50.6 L 255.999,0 119.663,174.487 h 50.6 L 77.989,306.363 H 138.89 L 42.85,456.839 H 228.082 V 496.8 H 144.2 V 512 h 83.881 55.838 83.881 V 496.8 H 344.717 V 476.82 Z M 228.08,441.638 H 70.582 l 86.339,-135.275 h 62.263 v -15.2 h -52.561 -13.867 -45.58 l 81.639,-116.676 h 30.37 v -15.2 H 199.45 184.857 150.829 l 105.17,-134.601 105.172,134.6 H 327.143 312.55 239.448 v 15.2 h 83.737 l 10.636,15.2 h -63.973 v 15.2 h 74.608 l 60.369,86.277 H 359.244 345.377 239.449 v 15.2 h 115.629 l 9.701,15.2 h -94.93 v 15.2 H 374.481 L 441.418,441.64 H 283.919 228.08 Z M 268.719,496.8 H 243.28 v -39.962 h 25.439 z"
   id="path3459" />

		</g>

	</g>

</g>
      <g
         id="g3467">
</g>
      <g
         id="g3469">
</g>
      <g
         id="g3471">
</g>
      <g
         id="g3473">
</g>
      <g
         id="g3475">
</g>
      <g
         id="g3477">
</g>
      <g
         id="g3479">
</g>
      <g
         id="g3481">
</g>
      <g
         id="g3483">
</g>
      <g
         id="g3485">
</g>
      <g
         id="g3487">
</g>
      <g
         id="g3489">
</g>
      <g
         id="g3491">
</g>
      <g
         id="g3493">
</g>
      <g
         id="g3495">
</g>
    </g>
    <g
       id="g3541"
       transform="matrix(0.09051485,0,0,0.09051485,62.791539,-4.2731447)">
      <g
         id="g3509"
         transform="matrix(0.23039213,0,0,0.23039213,-229.99809,378.98041)">
	<g
   id="g3507">
		<g
   id="g3505">
			
				<rect
   x="168.218"
   y="189.438"
   transform="matrix(-0.8194,-0.5733,0.5733,-0.8194,186.4107,524.366)"
   width="15.2"
   height="86.752998"
   id="rect3499" />

			
				<rect
   x="133.201"
   y="320.82401"
   transform="matrix(-0.8429,-0.538,0.538,-0.8429,58.2574,765.0392)"
   width="15.199"
   height="106.383"
   id="rect3501" />

			<path
   d="m 344.718,476.82 h -0.001 -15.2 v 19.98 h -15.2 v -30.113 h -15.2 V 496.8 h -15.2 V 456.838 H 469.149 L 373.109,306.362 H 434.01 L 341.735,174.486 h 50.6 L 255.999,0 119.663,174.487 h 50.6 L 77.989,306.363 H 138.89 L 42.85,456.839 H 228.082 V 496.8 H 144.2 V 512 h 83.881 55.838 83.881 V 496.8 H 344.717 V 476.82 Z M 228.08,441.638 H 70.582 l 86.339,-135.275 h 62.263 v -15.2 h -52.561 -13.867 -45.58 l 81.639,-116.676 h 30.37 v -15.2 H 199.45 184.857 150.829 l 105.17,-134.601 105.172,134.6 H 327.143 312.55 239.448 v 15.2 h 83.737 l 10.636,15.2 h -63.973 v 15.2 h 74.608 l 60.369,86.277 H 359.244 345.377 239.449 v 15.2 h 115.629 l 9.701,15.2 h -94.93 v 15.2 H 374.481 L 441.418,441.64 H 283.919 228.08 Z M 268.719,496.8 H 243.28 v -39.962 h 25.439 z"
   id="path3503" />

		</g>

	</g>

</g>
      <g
         id="g3511">
</g>
      <g
         id="g3513">
</g>
      <g
         id="g3515">
</g>
      <g
         id="g3517">
</g>
      <g
         id="g3519">
</g>
      <g
         id="g3521">
</g>
      <g
         id="g3523">
</g>
      <g
         id="g3525">
</g>
      <g
         id="g3527">
</g>
      <g
         id="g3529">
</g>
      <g
         id="g3531">
</g>
      <g
         id="g3533">
</g>
      <g
         id="g3535">
</g>
      <g
         id="g3537">
</g>
      <g
         id="g3539">
</g>
    </g>
    <g
       id="g3585"
       transform="matrix(0.09051485,0,0,-0.09051485,62.92383,89.165975)">
      <g
         id="g3553"
         transform="matrix(0.23039213,0,0,0.23039213,-229.99809,378.98041)">
	<g
   id="g3551">
		<g
   id="g3549">
			
				<rect
   x="168.218"
   y="189.438"
   transform="matrix(-0.8194,-0.5733,0.5733,-0.8194,186.4107,524.366)"
   width="15.2"
   height="86.752998"
   id="rect3543" />

			
				<rect
   x="133.201"
   y="320.82401"
   transform="matrix(-0.8429,-0.538,0.538,-0.8429,58.2574,765.0392)"
   width="15.199"
   height="106.383"
   id="rect3545" />

			<path
   d="m 344.718,476.82 h -0.001 -15.2 v 19.98 h -15.2 v -30.113 h -15.2 V 496.8 h -15.2 V 456.838 H 469.149 L 373.109,306.362 H 434.01 L 341.735,174.486 h 50.6 L 255.999,0 119.663,174.487 h 50.6 L 77.989,306.363 H 138.89 L 42.85,456.839 H 228.082 V 496.8 H 144.2 V 512 h 83.881 55.838 83.881 V 496.8 H 344.717 V 476.82 Z M 228.08,441.638 H 70.582 l 86.339,-135.275 h 62.263 v -15.2 h -52.561 -13.867 -45.58 l 81.639,-116.676 h 30.37 v -15.2 H 199.45 184.857 150.829 l 105.17,-134.601 105.172,134.6 H 327.143 312.55 239.448 v 15.2 h 83.737 l 10.636,15.2 h -63.973 v 15.2 h 74.608 l 60.369,86.277 H 359.244 345.377 239.449 v 15.2 h 115.629 l 9.701,15.2 h -94.93 v 15.2 H 374.481 L 441.418,441.64 H 283.919 228.08 Z M 268.719,496.8 H 243.28 v -39.962 h 25.439 z"
   id="path3547" />

		</g>

	</g>

</g>
      <g
         id="g3555">
</g>
      <g
         id="g3557">
</g>
      <g
         id="g3559">
</g>
      <g
         id="g3561">
</g>
      <g
         id="g3563">
</g>
      <g
         id="g3565">
</g>
      <g
         id="g3567">
</g>
      <g
         id="g3569">
</g>
      <g
         id="g3571">
</g>
      <g
         id="g3573">
</g>
      <g
         id="g3575">
</g>
      <g
         id="g3577">
</g>
      <g
         id="g3579">
</g>
      <g
         id="g3581">
</g>
      <g
         id="g3583">
</g>
    </g>
    <g
       id="g3629"
       transform="matrix(0.09051485,0,0,-0.09051485,26.146746,89.827433)">
      <g
         id="g3597"
         transform="matrix(0.23039213,0,0,0.23039213,-229.99809,378.98041)">
	<g
   id="g3595">
		<g
   id="g3593">
			
				<rect
   x="168.218"
   y="189.438"
   transform="matrix(-0.8194,-0.5733,0.5733,-0.8194,186.4107,524.366)"
   width="15.2"
   height="86.752998"
   id="rect3587" />

			
				<rect
   x="133.201"
   y="320.82401"
   transform="matrix(-0.8429,-0.538,0.538,-0.8429,58.2574,765.0392)"
   width="15.199"
   height="106.383"
   id="rect3589" />

			<path
   d="m 344.718,476.82 h -0.001 -15.2 v 19.98 h -15.2 v -30.113 h -15.2 V 496.8 h -15.2 V 456.838 H 469.149 L 373.109,306.362 H 434.01 L 341.735,174.486 h 50.6 L 255.999,0 119.663,174.487 h 50.6 L 77.989,306.363 H 138.89 L 42.85,456.839 H 228.082 V 496.8 H 144.2 V 512 h 83.881 55.838 83.881 V 496.8 H 344.717 V 476.82 Z M 228.08,441.638 H 70.582 l 86.339,-135.275 h 62.263 v -15.2 h -52.561 -13.867 -45.58 l 81.639,-116.676 h 30.37 v -15.2 H 199.45 184.857 150.829 l 105.17,-134.601 105.172,134.6 H 327.143 312.55 239.448 v 15.2 h 83.737 l 10.636,15.2 h -63.973 v 15.2 h 74.608 l 60.369,86.277 H 359.244 345.377 239.449 v 15.2 h 115.629 l 9.701,15.2 h -94.93 v 15.2 H 374.481 L 441.418,441.64 H 283.919 228.08 Z M 268.719,496.8 H 243.28 v -39.962 h 25.439 z"
   id="path3591" />

		</g>

	</g>

</g>
      <g
         id="g3599">
</g>
      <g
         id="g3601">
</g>
      <g
         id="g3603">
</g>
      <g
         id="g3605">
</g>
      <g
         id="g3607">
</g>
      <g
         id="g3609">
</g>
      <g
         id="g3611">
</g>
      <g
         id="g3613">
</g>
      <g
         id="g3615">
</g>
      <g
         id="g3617">
</g>
      <g
         id="g3619">
</g>
      <g
         id="g3621">
</g>
      <g
         id="g3623">
</g>
      <g
         id="g3625">
</g>
      <g
         id="g3627">
</g>
    </g>
    <g
       id="g3673"
       transform="matrix(0.09051485,0,0,-0.09051485,43.741538,109.80348)">
      <g
         id="g3641"
         transform="matrix(0.23039213,0,0,0.23039213,-229.99809,378.98041)">
	<g
   id="g3639">
		<g
   id="g3637">
			
				<rect
   x="168.218"
   y="189.438"
   transform="matrix(-0.8194,-0.5733,0.5733,-0.8194,186.4107,524.366)"
   width="15.2"
   height="86.752998"
   id="rect3631" />

			
				<rect
   x="133.201"
   y="320.82401"
   transform="matrix(-0.8429,-0.538,0.538,-0.8429,58.2574,765.0392)"
   width="15.199"
   height="106.383"
   id="rect3633" />

			<path
   d="m 344.718,476.82 h -0.001 -15.2 v 19.98 h -15.2 v -30.113 h -15.2 V 496.8 h -15.2 V 456.838 H 469.149 L 373.109,306.362 H 434.01 L 341.735,174.486 h 50.6 L 255.999,0 119.663,174.487 h 50.6 L 77.989,306.363 H 138.89 L 42.85,456.839 H 228.082 V 496.8 H 144.2 V 512 h 83.881 55.838 83.881 V 496.8 H 344.717 V 476.82 Z M 228.08,441.638 H 70.582 l 86.339,-135.275 h 62.263 v -15.2 h -52.561 -13.867 -45.58 l 81.639,-116.676 h 30.37 v -15.2 H 199.45 184.857 150.829 l 105.17,-134.601 105.172,134.6 H 327.143 312.55 239.448 v 15.2 h 83.737 l 10.636,15.2 h -63.973 v 15.2 h 74.608 l 60.369,86.277 H 359.244 345.377 239.449 v 15.2 h 115.629 l 9.701,15.2 h -94.93 v 15.2 H 374.481 L 441.418,441.64 H 283.919 228.08 Z M 268.719,496.8 H 243.28 v -39.962 h 25.439 z"
   id="path3635" />

		</g>

	</g>

</g>
      <g
         id="g3643">
</g>
      <g
         id="g3645">
</g>
      <g
         id="g3647">
</g>
      <g
         id="g3649">
</g>
      <g
         id="g3651">
</g>
      <g
         id="g3653">
</g>
      <g
         id="g3655">
</g>
      <g
         id="g3657">
</g>
      <g
         id="g3659">
</g>
      <g
         id="g3661">
</g>
      <g
         id="g3663">
</g>
      <g
         id="g3665">
</g>
      <g
         id="g3667">
</g>
      <g
         id="g3669">
</g>
      <g
         id="g3671">
</g>
    </g>
  </g>
</svg>
