<?xml version="1.0" encoding="UTF-8" standalone="no"?>
<svg
   xmlns:dc="http://purl.org/dc/elements/1.1/"
   xmlns:cc="http://creativecommons.org/ns#"
   xmlns:rdf="http://www.w3.org/1999/02/22-rdf-syntax-ns#"
   xmlns:svg="http://www.w3.org/2000/svg"
   xmlns="http://www.w3.org/2000/svg"
   xmlns:sodipodi="http://sodipodi.sourceforge.net/DTD/sodipodi-0.dtd"
   xmlns:inkscape="http://www.inkscape.org/namespaces/inkscape"
   width="250"
   height="350"
   viewBox="0 0 66.145832 92.604169"
   version="1.1"
   id="svg8"
   inkscape:version="1.0.2 (e86c870879, 2021-01-15)"
   sodipodi:docname="sprial.svg">
  <defs
     id="defs2" />
  <sodipodi:namedview
     id="base"
     pagecolor="#ffffff"
     bordercolor="#666666"
     borderopacity="1.0"
     inkscape:pageopacity="0.0"
     inkscape:pageshadow="2"
     inkscape:zoom="1.4"
     inkscape:cx="146.51757"
     inkscape:cy="227.83405"
     inkscape:document-units="mm"
     inkscape:current-layer="layer1"
     inkscape:document-rotation="0"
     showgrid="true"
     units="px"
     inkscape:pagecheckerboard="false"
     showguides="true"
     inkscape:window-width="1431"
     inkscape:window-height="1030"
     inkscape:window-x="96"
     inkscape:window-y="0"
     inkscape:window-maximized="0">
    <sodipodi:guide
       position="0,92.604167"
       orientation="0,250"
       id="guide10" />
    <sodipodi:guide
       position="66.145833,92.604167"
       orientation="350,0"
       id="guide12" />
    <sodipodi:guide
       position="66.145833,0"
       orientation="0,-250"
       id="guide14" />
    <sodipodi:guide
       position="21.166667,68.791667"
       orientation="-350,0"
       id="guide16" />
    <inkscape:grid
       type="xygrid"
       id="grid18" />
  </sodipodi:namedview>
  <metadata
     id="metadata5">
    <rdf:RDF>
      <cc:Work
         rdf:about="">
        <dc:format>image/svg+xml</dc:format>
        <dc:type
           rdf:resource="http://purl.org/dc/dcmitype/StillImage" />
        <dc:title></dc:title>
      </cc:Work>
    </rdf:RDF>
  </metadata>
  <g
     inkscape:label="Layer 1"
     inkscape:groupmode="layer"
     id="layer1">
    <path
       sodipodi:type="spiral"
       style="fill:none;fill-rule:evenodd;stroke:#000000;stroke-width:0.264583"
       id="path20"
       sodipodi:cx="38.134499"
       sodipodi:cy="41.79557"
       sodipodi:expansion="1"
       sodipodi:revolution="5.1366568"
       sodipodi:radius="67.226242"
       sodipodi:argument="-21.727335"
       sodipodi:t0="0"
       d="m 38.134499,41.79557 c -1.90046,-0.513331 -0.245659,-2.81504 0.85319,-3.158688 2.977815,-0.931263 5.346225,2.207379 5.464186,4.86507 0.211003,4.753985 -4.463459,8.011381 -8.876948,7.769683 C 29.097953,50.916932 24.845696,44.530993 25.499746,38.382808 26.371492,30.188243 34.523815,24.914855 42.400452,26.00213 52.312396,27.370354 58.617603,37.312298 57.086627,46.914714 55.23241,58.544527 43.488914,65.887071 32.162164,63.906387 18.81398,61.572219 10.430839,48.02024 12.864994,34.970045 15.675322,19.903079 31.040171,10.477242 45.813215,13.367378 62.599285,16.651334 73.069254,33.832006 69.721379,50.327477 65.965569,68.832903 46.966992,80.348032 28.749401,76.541139 8.5244229,72.314766 -4.0366284,51.496757 0.23024184,31.557282 4.9262096,9.6125952 27.5648,-3.9949593 49.225977,0.73262555 72.890499,5.8974435 87.54501,30.357505 82.356131,53.74024 76.723048,79.124699 50.440813,94.826527 25.336639,89.175891 -1.7678419,83.075011 -18.51728,54.970039 -12.40451,28.14452 -5.8362134,-0.68005265 24.091956,-18.47734 52.63874,-11.902127 83.183463,-4.8667258 102.0288,26.88502 94.990884,57.153002 87.48864,89.417927 53.912999,109.31148 21.923876,101.81064 -12.061292,93.841776 -33.0032,58.441974 -25.039263,24.731757 -20.63544,6.091 -7.9830077,-9.9629204 8.9937463,-18.786475"
       transform="matrix(0.51840135,0,0,0.74245043,14.626858,15.006361)" />
  </g>
</svg>
